<?xml version="1.0" encoding="UTF-8" standalone="no"?>
<!DOCTYPE svg PUBLIC "-//W3C//DTD SVG 1.1//EN" "http://www.w3.org/Graphics/SVG/1.1/DTD/svg11.dtd">
<svg xmlns="http://www.w3.org/2000/svg" xmlns:xlink="http://www.w3.org/1999/xlink" version="1.1" width="1294.4443pt" height="493.05555pt" viewBox="0 0 1294.4443 493.05555">
<g enable-background="new">
<path transform="matrix(2.7777777,0,0,-2.7777777,227.77777,141.98134)" d="M .121511 .306465 L 101.12151 40.306467 L 100.87849 40.920099 L -.121511 .920097 L .121511 .306465 Z " fill="#505050"/>
<path transform="matrix(2.7777777,0,0,-2.7777777,227.77777,252.8266)" d="M .204898 .258896 L 101.204898 80.258899 L 100.795108 80.77626 L -.204898 .77626 L .204898 .258896 Z " fill="#505050"/>
<path transform="matrix(2.7777777,0,0,-2.7777777,227.77777,142.11154)" d="M 0 .330156 L 101 .330156 L 101 .990156 L 0 .990156 L 0 .330156 Z " fill="#505050"/>
<path transform="matrix(2.7777777,0,0,-2.7777777,227.77777,253.09244)" d="M -.121511 40.306467 L 100.87849 .306465 L 101.12151 .920097 L .121511 40.920099 L -.121511 40.306467 Z " fill="#505050"/>
<path transform="matrix(2.7777777,0,0,-2.7777777,227.77777,363.9377)" d="M -.204898 80.258899 L 100.795108 .258896 L 101.204898 .77626 L .204898 80.77626 L -.204898 80.258899 Z " fill="#505050"/>
<path transform="matrix(2.7777777,0,0,-2.7777777,227.77777,253.09244)" d="M .121511 .306465 L 101.12151 40.306467 L 100.87849 40.920099 L -.121511 .920097 L .121511 .306465 Z " fill="#505050"/>
<path transform="matrix(2.7777777,0,0,-2.7777777,227.77777,253.22264)" d="M 0 .330156 L 101 .330156 L 101 .990156 L 0 .990156 L 0 .330156 Z " fill="#505050"/>
<path transform="matrix(2.7777777,0,0,-2.7777777,227.77777,364.20356)" d="M -.121511 40.306467 L 100.87849 .306465 L 101.12151 .920097 L .121511 40.920099 L -.121511 40.306467 Z " fill="#505050"/>
<path transform="matrix(2.7777777,0,0,-2.7777777,508.3333,31.000433)" d="M 0 .330156 L 101 .330156 L 101 .990156 L 0 .990156 L 0 .330156 Z " fill="#505050"/>
<path transform="matrix(2.7777777,0,0,-2.7777777,508.3333,141.98134)" d="M -.121511 40.306467 L 100.87849 .306465 L 101.12151 .920097 L .121511 40.920099 L -.121511 40.306467 Z " fill="#505050"/>
<path transform="matrix(2.7777777,0,0,-2.7777777,508.3333,141.98134)" d="M .121511 .306465 L 101.12151 40.306467 L 100.87849 40.920099 L -.121511 .920097 L .121511 .306465 Z " fill="#505050"/>
<path transform="matrix(2.7777777,0,0,-2.7777777,508.3333,142.11154)" d="M 0 .330156 L 101 .330156 L 101 .990156 L 0 .990156 L 0 .330156 Z " fill="#505050"/>
<path transform="matrix(2.7777777,0,0,-2.7777777,508.3333,252.8266)" d="M .204898 .258896 L 101.204898 80.258899 L 100.795108 80.77626 L -.204898 .77626 L .204898 .258896 Z " fill="#505050"/>
<path transform="matrix(2.7777777,0,0,-2.7777777,508.3333,253.09244)" d="M .121511 .306465 L 101.12151 40.306467 L 100.87849 40.920099 L -.121511 .920097 L .121511 .306465 Z " fill="#505050"/>
<path transform="matrix(2.7777777,0,0,-2.7777777,508.3333,363.6827)" d="M .252475 .21328 L 101.25247 120.21328 L 100.74753 120.63828 L -.252475 .638283 L .252475 .21328 Z " fill="#505050"/>
<path transform="matrix(2.7777777,0,0,-2.7777777,508.3333,363.9377)" d="M .204898 .258896 L 101.204898 80.258899 L 100.795108 80.77626 L -.204898 .77626 L .204898 .258896 Z " fill="#505050"/>
<path transform="matrix(2.7777777,0,0,-2.7777777,508.3333,252.8266)" d="M -.204898 80.258899 L 100.795108 .258896 L 101.204898 .77626 L .204898 80.77626 L -.204898 80.258899 Z " fill="#505050"/>
<path transform="matrix(2.7777777,0,0,-2.7777777,508.3333,363.6827)" d="M -.252475 120.21328 L 100.74753 .21328 L 101.25247 .638283 L .252475 120.63828 L -.252475 120.21328 Z " fill="#505050"/>
<path transform="matrix(2.7777777,0,0,-2.7777777,508.3333,253.09244)" d="M -.121511 40.306467 L 100.87849 .306465 L 101.12151 .920097 L .121511 40.920099 L -.121511 40.306467 Z " fill="#505050"/>
<path transform="matrix(2.7777777,0,0,-2.7777777,508.3333,363.9377)" d="M -.204898 80.258899 L 100.795108 .258896 L 101.204898 .77626 L .204898 80.77626 L -.204898 80.258899 Z " fill="#505050"/>
<path transform="matrix(2.7777777,0,0,-2.7777777,508.3333,253.22264)" d="M 0 .330156 L 101 .330156 L 101 .990156 L 0 .990156 L 0 .330156 Z " fill="#505050"/>
<path transform="matrix(2.7777777,0,0,-2.7777777,508.3333,364.20356)" d="M -.121511 40.306467 L 100.87849 .306465 L 101.12151 .920097 L .121511 40.920099 L -.121511 40.306467 Z " fill="#505050"/>
<path transform="matrix(2.7777777,0,0,-2.7777777,508.3333,364.20356)" d="M .121511 .306465 L 101.12151 40.306467 L 100.87849 40.920099 L -.121511 .920097 L .121511 .306465 Z " fill="#505050"/>
<path transform="matrix(2.7777777,0,0,-2.7777777,508.3333,364.33375)" d="M 0 .330156 L 101 .330156 L 101 .990156 L 0 .990156 L 0 .330156 Z " fill="#505050"/>
<path transform="matrix(2.7777777,0,0,-2.7777777,788.88888,141.98134)" d="M -.121511 40.306467 L 100.87849 .306465 L 101.12151 .920097 L .121511 40.920099 L -.121511 40.306467 Z " fill="#505050"/>
<path transform="matrix(2.7777777,0,0,-2.7777777,788.88888,252.8266)" d="M -.204898 80.258899 L 100.795108 .258896 L 101.204898 .77626 L .204898 80.77626 L -.204898 80.258899 Z " fill="#505050"/>
<path transform="matrix(2.7777777,0,0,-2.7777777,788.88888,142.11154)" d="M 0 .330156 L 101 .330156 L 101 .990156 L 0 .990156 L 0 .330156 Z " fill="#505050"/>
<path transform="matrix(2.7777777,0,0,-2.7777777,788.88888,253.09244)" d="M -.121511 40.306467 L 100.87849 .306465 L 101.12151 .920097 L .121511 40.920099 L -.121511 40.306467 Z " fill="#505050"/>
<path transform="matrix(2.7777777,0,0,-2.7777777,788.88888,253.09244)" d="M .121511 .306465 L 101.12151 40.306467 L 100.87849 40.920099 L -.121511 .920097 L .121511 .306465 Z " fill="#505050"/>
<path transform="matrix(2.7777777,0,0,-2.7777777,788.88888,253.22264)" d="M 0 .330156 L 101 .330156 L 101 .990156 L 0 .990156 L 0 .330156 Z " fill="#505050"/>
<path transform="matrix(2.7777777,0,0,-2.7777777,788.88888,363.9377)" d="M .204898 .258896 L 101.204898 80.258899 L 100.795108 80.77626 L -.204898 .77626 L .204898 .258896 Z " fill="#505050"/>
<path transform="matrix(2.7777777,0,0,-2.7777777,788.88888,364.20356)" d="M .121511 .306465 L 101.12151 40.306467 L 100.87849 40.920099 L -.121511 .920097 L .121511 .306465 Z " fill="#505050"/>
<path transform="matrix(2.7777777,0,0,-2.7777777,200,168.05554)" d="M 10 0 C 15.522848 0 20 4.477152 20 10 C 20 15.522848 15.522848 20 10 20 C 4.477152 20 0 15.522848 0 10 C 0 4.477152 4.477152 0 10 0 Z " fill="#ffffff"/>
<path transform="matrix(2.7777777,0,0,-2.7777777,200,170.83333)" d="M 19.5 11 C 19.5 5.753294 15.246706 1.5 10 1.5 L 10 .5 C 15.79899 .5 20.5 5.20101 20.5 11 L 19.5 11 Z M 10 1.5 C 4.753295 1.5 .5 5.753294 .5 11 L -.5 11 C -.5 5.20101 4.20101 .5 10 .5 L 10 1.5 Z M .5 11 C .5 16.246705 4.753295 20.5 10 20.5 L 10 21.5 C 4.20101 21.5 -.5 16.79899 -.5 11 L .5 11 Z M 10 20.5 C 15.246706 20.5 19.5 16.246705 19.5 11 L 20.5 11 C 20.5 16.79899 15.79899 21.5 10 21.5 L 10 20.5 Z " fill="#333333"/>
<path transform="matrix(2.7777777,0,0,-2.7777777,200,279.16667)" d="M 10 0 C 15.522848 0 20 4.477152 20 10 C 20 15.522848 15.522848 20 10 20 C 4.477152 20 0 15.522848 0 10 C 0 4.477152 4.477152 0 10 0 Z " fill="#ffffff"/>
<path transform="matrix(2.7777777,0,0,-2.7777777,200,281.94444)" d="M 19.5 11 C 19.5 5.753294 15.246706 1.5 10 1.5 L 10 .5 C 15.79899 .5 20.5 5.20101 20.5 11 L 19.5 11 Z M 10 1.5 C 4.753295 1.5 .5 5.753294 .5 11 L -.5 11 C -.5 5.20101 4.20101 .5 10 .5 L 10 1.5 Z M .5 11 C .5 16.246705 4.753295 20.5 10 20.5 L 10 21.5 C 4.20101 21.5 -.5 16.79899 -.5 11 L .5 11 Z M 10 20.5 C 15.246706 20.5 19.5 16.246705 19.5 11 L 20.5 11 C 20.5 16.79899 15.79899 21.5 10 21.5 L 10 20.5 Z " fill="#333333"/>
<path transform="matrix(2.7777777,0,0,-2.7777777,480.55555,56.944444)" d="M 10 0 C 15.522848 0 20 4.477152 20 10 C 20 15.522848 15.522848 20 10 20 C 4.477152 20 0 15.522848 0 10 C 0 4.477152 4.477152 0 10 0 Z " fill="#ffffff"/>
<path transform="matrix(2.7777777,0,0,-2.7777777,480.55555,59.72222)" d="M 19.5 11 C 19.5 5.753294 15.246706 1.5 10 1.5 L 10 .5 C 15.79899 .5 20.5 5.20101 20.5 11 L 19.5 11 Z M 10 1.5 C 4.753295 1.5 .5 5.753294 .5 11 L -.5 11 C -.5 5.20101 4.20101 .5 10 .5 L 10 1.5 Z M .5 11 C .5 16.246705 4.753295 20.5 10 20.5 L 10 21.5 C 4.20101 21.5 -.5 16.79899 -.5 11 L .5 11 Z M 10 20.5 C 15.246706 20.5 19.5 16.246705 19.5 11 L 20.5 11 C 20.5 16.79899 15.79899 21.5 10 21.5 L 10 20.5 Z " fill="#333333"/>
<path transform="matrix(2.7777777,0,0,-2.7777777,138.88889,482.44898)" d="M .306641 -.818359 Z M 2.420277 7.908914 L 2.420277 -.818359 L 1.363459 -.818359 L 1.363459 7.908914 L 2.420277 7.908914 Z M 3.482422 -.818359 Z M 5.408558 3.119141 L 5.408558 -.818359 L 4.402876 -.818359 L 4.402876 5.727096 L 5.374467 5.727096 L 5.374467 4.704368 L 5.459695 4.704368 C 5.613104 5.036755 5.846058 5.3038 6.158558 5.505504 C 6.471058 5.71005 6.874467 5.812323 7.368786 5.812323 C 7.811967 5.812323 8.199751 5.721414 8.532138 5.539596 C 8.864525 5.360618 9.123047 5.087891 9.307706 4.721414 C 9.492365 4.357777 9.584695 3.89755 9.584695 3.340732 L 9.584695 -.818359 L 8.579013 -.818359 L 8.579013 3.27255 C 8.579013 3.786754 8.44549 4.187323 8.178445 4.474255 C 7.911399 4.764027 7.544922 4.908914 7.079013 4.908914 C 6.75799 4.908914 6.471058 4.839311 6.218217 4.700107 C 5.968217 4.560902 5.770774 4.357777 5.625888 4.090732 C 5.481001 3.823686 5.408558 3.499823 5.408558 3.119141 Z M 10.501953 -.818359 Z M 11.422408 -3.272905 L 11.422408 5.727096 L 12.393998 5.727096 L 12.393998 4.687323 L 12.513317 4.687323 C 12.58718 4.800959 12.689453 4.945845 12.820135 5.121982 C 12.953658 5.300959 13.143999 5.46005 13.391158 5.599254 C 13.641158 5.7413 13.979226 5.812323 14.405362 5.812323 C 14.956499 5.812323 15.442294 5.674539 15.862749 5.398971 C 16.283204 5.123402 16.611329 4.732777 16.847125 4.227096 C 17.08292 3.721414 17.200818 3.124823 17.200818 2.437323 C 17.200818 1.744141 17.08292 1.143289 16.847125 .634766 C 16.611329 .129084 16.284625 -.262961 15.86701 -.54137 C 15.449396 -.816939 14.967862 -.954723 14.422408 -.954723 C 14.001953 -.954723 13.665305 -.885121 13.412464 -.745916 C 13.159623 -.603871 12.965021 -.443359 12.828658 -.264382 C 12.692294 -.082563 12.58718 .068005 12.513317 .187323 L 12.428089 .187323 L 12.428089 -3.272905 L 11.422408 -3.272905 Z M 12.411044 2.454368 C 12.411044 1.96005 12.483487 1.523971 12.628373 1.14613 C 12.77326 .77113 12.984908 .477096 13.263317 .264027 C 13.541726 .0538 13.882635 -.051314 14.286044 -.051314 C 14.706499 -.051314 15.057351 .059482 15.338601 .281073 C 15.622692 .505505 15.83576 .806641 15.977805 1.184482 C 16.122693 1.565164 16.195136 1.988459 16.195136 2.454368 C 16.195136 2.914595 16.124114 3.329368 15.982067 3.698686 C 15.842862 4.070845 15.631215 4.364879 15.347124 4.580789 C 15.065874 4.799539 14.712181 4.908914 14.286044 4.908914 C 13.876953 4.908914 13.533203 4.80522 13.254794 4.597834 C 12.976385 4.393288 12.766157 4.106357 12.624112 3.737039 C 12.482067 3.370561 12.411044 2.943005 12.411044 2.454368 Z M 17.814454 -.818359 Z M 22.859908 1.857777 L 22.859908 5.727096 L 23.86559 5.727096 L 23.86559 -.818359 L 22.859908 -.818359 L 22.859908 .289596 L 22.791726 .289596 C 22.638318 -.042791 22.399682 -.325461 22.075818 -.558416 C 21.751954 -.788529 21.342862 -.903586 20.848544 -.903586 C 20.439454 -.903586 20.075818 -.814097 19.757636 -.63512 C 19.439454 -.453302 19.189454 -.180575 19.007636 .183062 C 18.825818 .549539 18.734908 1.011186 18.734908 1.568005 L 18.734908 5.727096 L 19.74059 5.727096 L 19.74059 1.636187 C 19.74059 1.158914 19.874112 .778232 20.141158 .494141 C 20.411046 .21005 20.754796 .068005 21.172408 .068005 C 21.422408 .068005 21.676669 .131925 21.935193 .259766 C 22.196557 .387607 22.415307 .583629 22.591443 .847834 C 22.770419 1.112039 22.859908 1.448686 22.859908 1.857777 Z M 24.78711 -.818359 Z M 28.554156 5.727096 L 28.554156 4.874823 L 25.16211 4.874823 L 25.16211 5.727096 L 28.554156 5.727096 Z M 26.150746 7.295277 L 27.156428 7.295277 L 27.156428 1.056641 C 27.156428 .77255 27.19762 .559482 27.280007 .417437 C 27.365235 .278232 27.473189 .184482 27.60387 .136186 C 27.737395 .090732 27.87802 .068005 28.025746 .068005 C 28.136542 .068005 28.22745 .073687 28.298474 .08505 C 28.369496 .099255 28.426314 .110618 28.468928 .119141 L 28.673474 -.784268 C 28.605292 -.809836 28.51012 -.835404 28.387963 -.860973 C 28.265803 -.889382 28.110974 -.903586 27.923474 -.903586 C 27.639384 -.903586 27.360974 -.842507 27.088246 -.720348 C 26.81836 -.598189 26.593928 -.412109 26.41495 -.162109 C 26.238814 .087891 26.150746 .403232 26.150746 .783914 L 26.150746 7.295277 Z M 32.521486 -.818359 Z M 33.578306 -.818359 L 33.578306 7.908914 L 34.63512 7.908914 L 34.63512 .119141 L 38.69194 .119141 L 38.69194 -.818359 L 33.578306 -.818359 Z M 39.271486 -.818359 Z M 42.118078 -.971768 C 41.7033 -.971768 41.32688 -.893643 40.988817 -.737393 C 40.650747 -.578302 40.38228 -.349609 40.183416 -.051314 C 39.98455 .249823 39.88512 .613459 39.88512 1.039596 C 39.88512 1.414596 39.958986 1.718573 40.106714 1.951527 C 40.25444 2.187323 40.45188 2.371982 40.69904 2.505505 C 40.946199 2.639028 41.218927 2.738459 41.517225 2.8038 C 41.81836 2.871982 42.12092 2.925959 42.424894 2.965732 C 42.82262 3.016869 43.145067 3.055221 43.392225 3.080789 C 43.642225 3.109198 43.824045 3.156073 43.93768 3.221414 C 44.054155 3.286754 44.112394 3.400391 44.112394 3.562323 L 44.112394 3.596414 C 44.112394 4.016868 43.997339 4.343573 43.767225 4.576527 C 43.53995 4.809482 43.194784 4.925959 42.731714 4.925959 C 42.2516 4.925959 41.875177 4.820845 41.60245 4.610618 C 41.329725 4.400391 41.137964 4.175959 41.027166 3.937323 L 40.07262 4.278232 C 40.243078 4.675959 40.47035 4.985618 40.75444 5.207209 C 41.04137 5.431641 41.35387 5.587891 41.69194 5.675959 C 42.03285 5.766868 42.368078 5.812323 42.69762 5.812323 C 42.90785 5.812323 43.149328 5.786755 43.422056 5.735619 C 43.69762 5.687323 43.963247 5.586471 44.21893 5.433062 C 44.47745 5.279652 44.69194 5.048118 44.862394 4.738459 C 45.03285 4.4288 45.118078 4.014027 45.118078 3.494141 L 45.118078 -.818359 L 44.112394 -.818359 L 44.112394 .068005 L 44.061258 .068005 C 43.993078 -.074041 43.87944 -.22603 43.72035 -.387961 C 43.561258 -.549893 43.34961 -.687677 43.085405 -.801314 C 42.8212 -.91495 42.498758 -.971768 42.118078 -.971768 Z M 42.271486 -.068359 C 42.669214 -.068359 43.00444 .009766 43.27717 .166016 C 43.552736 .322266 43.76012 .523971 43.899328 .77113 C 44.04137 1.018289 44.112394 1.278232 44.112394 1.550959 L 44.112394 2.471414 C 44.06978 2.420277 43.97603 2.373402 43.831144 2.330789 C 43.6891 2.291016 43.524328 2.255505 43.336828 2.224255 C 43.15217 2.195846 42.971769 2.170277 42.79563 2.14755 C 42.622339 2.127664 42.481714 2.110619 42.373758 2.096414 C 42.112394 2.062323 41.868078 2.006925 41.640806 1.930221 C 41.41637 1.856357 41.23455 1.744141 41.09535 1.593573 C 40.958986 1.445846 40.890806 1.244141 40.890806 .988459 C 40.890806 .639028 41.020067 .374823 41.278589 .195846 C 41.53995 .019709 41.870916 -.068359 42.271486 -.068359 Z M 45.79883 -.818359 Z M 47.36701 -3.272905 C 47.196557 -3.272905 47.044569 -3.2587 46.911046 -3.230291 C 46.77752 -3.204723 46.685194 -3.179155 46.634057 -3.153586 L 46.889738 -2.267223 C 47.134057 -2.329723 47.349966 -2.35245 47.537466 -2.335404 C 47.724966 -2.318359 47.89116 -2.234552 48.036046 -2.083984 C 48.18377 -1.936257 48.318716 -1.6962 48.440874 -1.363814 L 48.628374 -.85245 L 46.20792 5.727096 L 47.29883 5.727096 L 49.105649 .511187 L 49.17383 .511187 L 50.980649 5.727096 L 52.071557 5.727096 L 49.293149 -1.772904 C 49.168149 -2.110973 49.013319 -2.390802 48.82866 -2.612393 C 48.644 -2.836825 48.429513 -3.003018 48.185194 -3.110973 C 47.943716 -3.218928 47.670988 -3.272905 47.36701 -3.272905 Z M 52.24414 -.818359 Z M 55.908914 -.954723 C 55.278234 -.954723 54.734197 -.815518 54.27681 -.537109 C 53.822267 -.255859 53.471414 .136186 53.224256 .639027 C 52.979936 1.144709 52.857778 1.732777 52.857778 2.403232 C 52.857778 3.073687 52.979936 3.664595 53.224256 4.175959 C 53.471414 4.690163 53.815164 5.090732 54.255506 5.377664 C 54.698686 5.667436 55.215734 5.812323 55.80664 5.812323 C 56.14755 5.812323 56.4842 5.755505 56.816587 5.641869 C 57.14897 5.528232 57.451528 5.343573 57.724256 5.087891 C 57.996984 4.83505 58.214315 4.499823 58.376245 4.082209 C 58.538175 3.664595 58.61914 3.150391 58.61914 2.539596 L 58.61914 2.113459 L 53.573686 2.113459 L 53.573686 2.982777 L 57.596414 2.982777 C 57.596414 3.352095 57.52255 3.681641 57.374826 3.971414 C 57.22994 4.261186 57.02255 4.48988 56.752664 4.657493 C 56.48562 4.825107 56.170278 4.908914 55.80664 4.908914 C 55.40607 4.908914 55.059484 4.809482 54.76687 4.610618 C 54.477098 4.414595 54.254087 4.158913 54.097837 3.843573 C 53.941587 3.528232 53.86346 3.190163 53.86346 2.829368 L 53.86346 2.249823 C 53.86346 1.755505 53.94869 1.336471 54.11914 .992721 C 54.29244 .651812 54.532495 .391868 54.83931 .212891 C 55.14613 .036754 55.502664 -.051314 55.908914 -.051314 C 56.17312 -.051314 56.411756 -.014382 56.624826 .059482 C 56.840734 .136187 57.02681 .249823 57.18306 .400391 C 57.33931 .5538 57.46005 .744141 57.545278 .971414 L 58.51687 .698686 C 58.414598 .369141 58.24272 .079368 58.001245 -.170632 C 57.759767 -.417791 57.46147 -.610972 57.106359 -.750177 C 56.751245 -.886541 56.352094 -.954723 55.908914 -.954723 Z M 59.228517 -.818359 Z M 60.14897 -.818359 L 60.14897 5.727096 L 61.12056 5.727096 L 61.12056 4.738459 L 61.188745 4.738459 C 61.308065 5.062322 61.52397 5.325107 61.83647 5.526812 C 62.14897 5.728516 62.501245 5.829369 62.893289 5.829369 C 62.96715 5.829369 63.059484 5.827948 63.170278 5.825107 C 63.281076 5.822266 63.36488 5.818005 63.4217 5.812323 L 63.4217 4.789596 C 63.387609 4.798118 63.309484 4.810902 63.187326 4.827948 C 63.068006 4.847834 62.941587 4.857777 62.80806 4.857777 C 62.48988 4.857777 62.205789 4.791016 61.955789 4.657493 C 61.70863 4.526812 61.512609 4.344993 61.36772 4.112039 C 61.225675 3.881925 61.15465 3.619141 61.15465 3.323686 L 61.15465 -.818359 L 60.14897 -.818359 Z "/>
<symbol id="font_0_a">
</symbol>
<symbol id="font_0_6">
</symbol>
<symbol id="font_0_5">
</symbol>
<symbol id="font_0_4">
</symbol>
<symbol id="font_0_7">
</symbol>
<symbol id="font_0_9">
</symbol>
<symbol id="font_0_3">
</symbol>
<symbol id="font_0_8">
</symbol>
<symbol id="font_0_2">
</symbol>
<symbol id="font_0_1">
</symbol>
<symbol id="font_0_0">
</symbol>
<use xlink:href="#font_0_a" transform="matrix(33.333333,0,0,-33.333333,139.74066,484.7222)"/>
<use xlink:href="#font_0_6" transform="matrix(33.333333,0,0,-33.333333,148.54067,484.7222)"/>
<use xlink:href="#font_0_5" transform="matrix(33.333333,0,0,-33.333333,168.04067,484.7222)"/>
<use xlink:href="#font_0_4" transform="matrix(33.333333,0,0,-33.333333,188.34067,484.7222)"/>
<use xlink:href="#font_0_7" transform="matrix(33.333333,0,0,-33.333333,207.67401,484.7222)"/>
<use xlink:href="#font_0_9" transform="matrix(33.333333,0,0,-33.333333,219.77402,484.7222)"/>
<use xlink:href="#font_0_3" transform="matrix(33.333333,0,0,-33.333333,229.14069,484.7222)"/>
<use xlink:href="#font_0_8" transform="matrix(33.333333,0,0,-33.333333,247.87401,484.7222)"/>
<use xlink:href="#font_0_2" transform="matrix(33.333333,0,0,-33.333333,265.97486,484.7222)"/>
<use xlink:href="#font_0_1" transform="matrix(33.333333,0,0,-33.333333,283.85124,484.7222)"/>
<use xlink:href="#font_0_0" transform="matrix(33.333333,0,0,-33.333333,303.25123,484.7222)"/>
<path transform="matrix(2.7777777,0,0,-2.7777777,0,149.44661)" d="M .306641 -.699219 Z M 6.136186 5.846236 C 6.08505 6.278054 5.877664 6.613281 5.514027 6.851918 C 5.150391 7.090554 4.704368 7.209872 4.175959 7.209872 C 3.789595 7.209872 3.451527 7.147372 3.161754 7.022372 C 2.874823 6.897372 2.650391 6.725497 2.488459 6.506747 C 2.329368 6.287997 2.249823 6.039418 2.249823 5.761009 C 2.249823 5.528055 2.30522 5.32777 2.416016 5.160156 C 2.529652 4.995384 2.674538 4.8576 2.850675 4.746804 C 3.026811 4.63885 3.21147 4.549361 3.404652 4.478338 C 3.597834 4.410156 3.775391 4.354759 3.937322 4.312145 L 4.823686 4.073509 C 5.050959 4.01385 5.3038 3.931463 5.582209 3.826349 C 5.863459 3.721236 6.131925 3.57777 6.387607 3.395952 C 6.646129 3.216974 6.859198 2.986861 7.026812 2.705611 C 7.194425 2.424361 7.278232 2.07919 7.278232 1.670099 C 7.278232 1.198508 7.154652 .772372 6.907494 .39169 C 6.663175 .011008 6.30522 -.291549 5.83363 -.51598 C 5.36488 -.740412 4.795277 -.852628 4.124823 -.852628 C 3.499823 -.852628 2.958629 -.751776 2.501243 -.550071 C 2.046698 -.348366 1.688743 -.067116 1.427379 .293679 C 1.168857 .654474 1.02255 1.073508 .988459 1.550781 L 2.079368 1.550781 C 2.107777 1.221236 2.218573 .948508 2.411754 .732599 C 2.607777 .519531 2.854936 .36044 3.153232 .255326 C 3.454368 .153053 3.778232 .101917 4.124823 .101917 C 4.528232 .101917 4.890448 .167258 5.211471 .29794 C 5.532493 .431463 5.786755 .616122 5.974255 .851917 C 6.161755 1.090554 6.255505 1.368963 6.255505 1.687145 C 6.255505 1.976918 6.174539 2.212713 6.012607 2.394531 C 5.850675 2.576349 5.637607 2.724076 5.373402 2.837713 C 5.109198 2.951349 4.823687 3.050781 4.516868 3.136008 L 3.443005 3.442827 C 2.761186 3.63885 2.221413 3.918679 1.823686 4.282315 C 1.425959 4.645952 1.227095 5.121804 1.227095 5.709872 C 1.227095 6.198509 1.359197 6.624645 1.623402 6.988281 C 1.890447 7.354759 2.248402 7.63885 2.697266 7.840554 C 3.14897 8.045099 3.653231 8.147372 4.21005 8.147372 C 4.77255 8.147372 5.27255 8.04652 5.71005 7.844816 C 6.14755 7.645952 6.494141 7.373225 6.749823 7.026634 C 7.008345 6.680043 7.144709 6.286577 7.158914 5.846236 L 6.136186 5.846236 Z M 7.958984 -.699219 Z M 8.879439 -3.153765 L 8.879439 5.846236 L 9.851029 5.846236 L 9.851029 4.806463 L 9.970348 4.806463 C 10.044211 4.9201 10.146484 5.064986 10.277166 5.241122 C 10.410689 5.4201 10.60103 5.57919 10.848189 5.718395 C 11.098189 5.86044 11.436257 5.931463 11.862393 5.931463 C 12.41353 5.931463 12.899325 5.793679 13.31978 5.518111 C 13.740234 5.242543 14.068359 4.851918 14.304155 4.346236 C 14.53995 3.840554 14.657848 3.243963 14.657848 2.556463 C 14.657848 1.863281 14.53995 1.262429 14.304155 .753906 C 14.068359 .248224 13.741654 -.143821 13.324041 -.42223 C 12.906427 -.697799 12.424893 -.835583 11.879439 -.835583 C 11.458984 -.835583 11.122336 -.765981 10.869495 -.626776 C 10.616654 -.484731 10.422052 -.324219 10.285689 -.145242 C 10.149325 .036577 10.044211 .187145 9.970348 .306463 L 9.88512 .306463 L 9.88512 -3.153765 L 8.879439 -3.153765 Z M 9.868075 2.573508 C 9.868075 2.07919 9.940518 1.643111 10.085404 1.26527 C 10.230291 .89027 10.441939 .596236 10.720348 .383167 C 10.998757 .17294 11.339666 .067826 11.743075 .067826 C 12.16353 .067826 12.514382 .178622 12.795632 .400213 C 13.079723 .624645 13.292791 .925781 13.434836 1.303622 C 13.579723 1.684304 13.652166 2.107599 13.652166 2.573508 C 13.652166 3.033735 13.581143 3.448508 13.439098 3.817827 C 13.299893 4.189986 13.088246 4.48402 12.804155 4.699929 C 12.522905 4.918679 12.169212 5.028054 11.743075 5.028054 C 11.333984 5.028054 10.990234 4.924361 10.711825 4.716974 C 10.433416 4.512429 10.223188 4.225497 10.081143 3.856179 C 9.939098 3.489702 9.868075 3.062145 9.868075 2.573508 Z M 15.271484 -.699219 Z M 18.936257 -.835583 C 18.305575 -.835583 17.761542 -.696378 17.304156 -.417969 C 16.84961 -.136719 16.498759 .255326 16.251599 .758167 C 16.00728 1.263849 15.88512 1.851917 15.88512 2.522372 C 15.88512 3.192827 16.00728 3.783736 16.251599 4.295099 C 16.498759 4.809304 16.842509 5.209872 17.282849 5.496804 C 17.72603 5.786577 18.243075 5.931463 18.833985 5.931463 C 19.174895 5.931463 19.511542 5.874645 19.843928 5.761009 C 20.176314 5.647373 20.47887 5.462713 20.751599 5.207031 C 21.024325 4.954191 21.241656 4.618963 21.403588 4.201349 C 21.56552 3.783736 21.646485 3.269531 21.646485 2.658736 L 21.646485 2.232599 L 16.60103 2.232599 L 16.60103 3.101917 L 20.623757 3.101917 C 20.623757 3.471236 20.549893 3.800782 20.402167 4.090554 C 20.25728 4.380327 20.049895 4.60902 19.780007 4.776634 C 19.51296 4.944247 19.19762 5.028054 18.833985 5.028054 C 18.433417 5.028054 18.086825 4.928622 17.794213 4.729759 C 17.504439 4.533736 17.281428 4.278054 17.125178 3.962713 C 16.968928 3.647372 16.890803 3.309304 16.890803 2.948508 L 16.890803 2.368963 C 16.890803 1.874645 16.97603 1.455611 17.146485 1.111861 C 17.31978 .770952 17.559838 .511008 17.866656 .332031 C 18.173474 .155894 18.530007 .067826 18.936257 .067826 C 19.20046 .067826 19.439099 .104758 19.652167 .178622 C 19.868077 .255327 20.054156 .368963 20.210406 .519531 C 20.366656 .67294 20.487395 .863281 20.57262 1.090554 L 21.544213 .817826 C 21.441939 .488281 21.270064 .198508 21.028588 -.051492 C 20.78711 -.298651 20.488814 -.491832 20.1337 -.631037 C 19.778588 -.767401 19.379439 -.835583 18.936257 -.835583 Z M 22.25586 -.699219 Z M 25.920632 -.835583 C 25.28995 -.835583 24.745917 -.696378 24.28853 -.417969 C 23.833985 -.136719 23.483134 .255326 23.235974 .758167 C 22.991656 1.263849 22.869496 1.851917 22.869496 2.522372 C 22.869496 3.192827 22.991656 3.783736 23.235974 4.295099 C 23.483134 4.809304 23.826884 5.209872 24.267224 5.496804 C 24.710406 5.786577 25.22745 5.931463 25.81836 5.931463 C 26.15927 5.931463 26.495917 5.874645 26.828303 5.761009 C 27.160689 5.647373 27.463246 5.462713 27.735974 5.207031 C 28.0087 4.954191 28.22603 4.618963 28.387963 4.201349 C 28.549895 3.783736 28.63086 3.269531 28.63086 2.658736 L 28.63086 2.232599 L 23.585406 2.232599 L 23.585406 3.101917 L 27.608132 3.101917 C 27.608132 3.471236 27.534268 3.800782 27.386542 4.090554 C 27.241656 4.380327 27.03427 4.60902 26.764382 4.776634 C 26.497336 4.944247 26.181996 5.028054 25.81836 5.028054 C 25.417792 5.028054 25.0712 4.928622 24.778588 4.729759 C 24.488814 4.533736 24.265803 4.278054 24.109553 3.962713 C 23.953303 3.647372 23.875178 3.309304 23.875178 2.948508 L 23.875178 2.368963 C 23.875178 1.874645 23.960406 1.455611 24.13086 1.111861 C 24.304156 .770952 24.544213 .511008 24.85103 .332031 C 25.157849 .155894 25.514382 .067826 25.920632 .067826 C 26.184836 .067826 26.423474 .104758 26.636542 .178622 C 26.852452 .255327 27.03853 .368963 27.19478 .519531 C 27.35103 .67294 27.47177 .863281 27.556996 1.090554 L 28.528588 .817826 C 28.426314 .488281 28.254439 .198508 28.012963 -.051492 C 27.771485 -.298651 27.473189 -.491832 27.118075 -.631037 C 26.762963 -.767401 26.363814 -.835583 25.920632 -.835583 Z M 29.240235 -.699219 Z M 32.63228 -.835583 C 32.086828 -.835583 31.605292 -.697799 31.187678 -.42223 C 30.770064 -.143821 30.44336 .248224 30.207564 .753906 C 29.971768 1.262429 29.85387 1.863281 29.85387 2.556463 C 29.85387 3.243963 29.971768 3.840554 30.207564 4.346236 C 30.44336 4.851918 30.771485 5.242543 31.191939 5.518111 C 31.612393 5.793679 32.09819 5.931463 32.649328 5.931463 C 33.075464 5.931463 33.41211 5.86044 33.659269 5.718395 C 33.909269 5.57919 34.09961 5.4201 34.230295 5.241122 C 34.363817 5.064986 34.467508 4.9201 34.54137 4.806463 L 34.6266 4.806463 L 34.6266 8.028054 L 35.63228 8.028054 L 35.63228 -.699219 L 34.66069 -.699219 L 34.66069 .306463 L 34.54137 .306463 C 34.467508 .187145 34.362394 .036577 34.22603 -.145242 C 34.089666 -.324219 33.895067 -.484731 33.642225 -.626776 C 33.38938 -.765981 33.052736 -.835583 32.63228 -.835583 Z M 32.768644 .067826 C 33.17205 .067826 33.512964 .17294 33.79137 .383167 C 34.06978 .596236 34.28143 .89027 34.426317 1.26527 C 34.5712 1.643111 34.643644 2.07919 34.643644 2.573508 C 34.643644 3.062145 34.57262 3.489702 34.430578 3.856179 C 34.28853 4.225497 34.0783 4.512429 33.799894 4.716974 C 33.521486 4.924361 33.177736 5.028054 32.768644 5.028054 C 32.342508 5.028054 31.987395 4.918679 31.703303 4.699929 C 31.422053 4.48402 31.210406 4.189986 31.06836 3.817827 C 30.929156 3.448508 30.859553 3.033735 30.859553 2.573508 C 30.859553 2.107599 30.930575 1.684304 31.07262 1.303622 C 31.217509 .925781 31.430577 .624645 31.711827 .400213 C 31.995917 .178622 32.34819 .067826 32.768644 .067826 Z "/>
<symbol id="font_0_e">
</symbol>
<symbol id="font_0_c">
</symbol>
<use xlink:href="#font_0_e" transform="matrix(33.333333,0,0,-33.333333,.85178056,151.38889)"/>
<use xlink:href="#font_0_5" transform="matrix(33.333333,0,0,-33.333333,22.085114,151.38889)"/>
<use xlink:href="#font_0_1" transform="matrix(33.333333,0,0,-33.333333,42.385118,151.38889)"/>
<use xlink:href="#font_0_1" transform="matrix(33.333333,0,0,-33.333333,61.785116,151.38889)"/>
<use xlink:href="#font_0_c" transform="matrix(33.333333,0,0,-33.333333,81.18511,151.38889)"/>
<path transform="matrix(2.7777777,0,0,-2.7777777,0,276.05793)" d="M 0 11.880859 Z M 7.977273 20.608132 L 7.977273 11.880859 L 6.954546 11.880859 L 2.198864 18.733132 L 2.113636 18.733132 L 2.113636 11.880859 L 1.056818 11.880859 L 1.056818 20.608132 L 2.079545 20.608132 L 6.852273 13.738814 L 6.9375 13.738814 L 6.9375 20.608132 L 7.977273 20.608132 Z M 9.035156 11.880859 Z M 12.699929 11.744495 C 12.069247 11.744495 11.525213 11.8837 11.067826 12.162109 C 10.613281 12.443359 10.262429 12.835404 10.01527 13.338245 C 9.770951 13.843927 9.648792 14.431995 9.648792 15.10245 C 9.648792 15.772905 9.770951 16.363814 10.01527 16.875178 C 10.262429 17.389382 10.606179 17.789952 11.04652 18.076882 C 11.489701 18.366656 12.006747 18.511542 12.597656 18.511542 C 12.938565 18.511542 13.275213 18.454724 13.607599 18.341088 C 13.939986 18.227452 14.242543 18.042792 14.51527 17.78711 C 14.787997 17.53427 15.005327 17.199042 15.167259 16.781428 C 15.32919 16.363814 15.410156 15.849609 15.410156 15.238814 L 15.410156 14.812677 L 10.364702 14.812677 L 10.364702 15.681995 L 14.387429 15.681995 C 14.387429 16.051314 14.313565 16.38086 14.165838 16.670632 C 14.020951 16.960406 13.813565 17.189099 13.543679 17.356713 C 13.276634 17.524327 12.961293 17.608132 12.597656 17.608132 C 12.197088 17.608132 11.850497 17.508702 11.557883 17.309838 C 11.26811 17.113814 11.045099 16.858132 10.888849 16.542792 C 10.732599 16.227452 10.654474 15.889381 10.654474 15.528586 L 10.654474 14.949041 C 10.654474 14.454723 10.739701 14.035689 10.910156 13.691939 C 11.083451 13.35103 11.323508 13.091086 11.630327 12.912109 C 11.937145 12.735972 12.293679 12.647904 12.699929 12.647904 C 12.964134 12.647904 13.20277 12.684836 13.415838 12.7587 C 13.631747 12.835405 13.817827 12.949041 13.974077 13.099609 C 14.130327 13.253018 14.251065 13.443359 14.336292 13.670632 L 15.307884 13.397904 C 15.205611 13.068359 15.033735 12.778586 14.792258 12.528586 C 14.550781 12.281427 14.252485 12.088246 13.897372 11.949041 C 13.542259 11.812677 13.143111 11.744495 12.699929 11.744495 Z M 15.84375 11.880859 Z M 17.514204 18.426316 L 19.082386 15.750177 L 20.650568 18.426316 L 21.80966 18.426316 L 19.696022 15.153586 L 21.80966 11.880859 L 20.650568 11.880859 L 19.082386 14.420632 L 17.514204 11.880859 L 16.355114 11.880859 L 18.43466 15.153586 L 16.355114 18.426316 L 17.514204 18.426316 Z M 22.324219 11.880859 Z M 26.091265 18.426316 L 26.091265 17.574042 L 22.699219 17.574042 L 22.699219 18.426316 L 26.091265 18.426316 Z M 23.687855 19.994496 L 24.693537 19.994496 L 24.693537 13.755859 C 24.693537 13.471768 24.73473 13.2587 24.817116 13.116655 C 24.902344 12.97745 25.010298 12.8837 25.14098 12.835404 C 25.274504 12.78995 25.415129 12.767223 25.562855 12.767223 C 25.67365 12.767223 25.764559 12.772905 25.835583 12.784268 C 25.906605 12.798473 25.963423 12.809836 26.006037 12.818359 L 26.210583 11.91495 C 26.1424 11.889382 26.04723 11.863814 25.925072 11.838245 C 25.802912 11.809836 25.648083 11.795632 25.460583 11.795632 C 25.176493 11.795632 24.898083 11.856711 24.625355 11.97887 C 24.355469 12.101029 24.131037 12.287109 23.952059 12.537109 C 23.775923 12.787109 23.687855 13.10245 23.687855 13.483132 L 23.687855 19.994496 Z M 0 -3.119141 Z M 8.420455 1.244495 C 8.420455 .324041 8.254262 -.471415 7.921875 -1.141869 C 7.589489 -1.812323 7.133523 -2.329369 6.553978 -2.693005 C 5.974432 -3.056641 5.3125 -3.238459 4.568182 -3.238459 C 3.823864 -3.238459 3.161932 -3.056641 2.582386 -2.693005 C 2.002841 -2.329369 1.546875 -1.812323 1.214489 -1.141869 C .882102 -.471415 .715909 .324041 .715909 1.244495 C .715909 2.164949 .882102 2.960405 1.214489 3.630859 C 1.546875 4.301313 2.002841 4.818359 2.582386 5.181995 C 3.161932 5.545633 3.823864 5.727451 4.568182 5.727451 C 5.3125 5.727451 5.974432 5.545633 6.553978 5.181995 C 7.133523 4.818359 7.589489 4.301313 7.921875 3.630859 C 8.254262 2.960405 8.420455 2.164949 8.420455 1.244495 Z M 7.397728 1.244495 C 7.397728 2.000177 7.271307 2.637962 7.018466 3.157848 C 6.768466 3.677734 6.428977 4.071199 6 4.338245 C 5.573864 4.605291 5.096591 4.738813 4.568182 4.738813 C 4.039773 4.738813 3.56108 4.605291 3.132102 4.338245 C 2.705966 4.071199 2.366477 3.677734 2.113636 3.157848 C 1.863636 2.637962 1.738636 2.000177 1.738636 1.244495 C 1.738636 .488813 1.863636 -.14897 2.113636 -.668856 C 2.366477 -1.188744 2.705966 -1.582209 3.132102 -1.849255 C 3.56108 -2.116301 4.039773 -2.249823 4.568182 -2.249823 C 5.096591 -2.249823 5.573864 -2.116301 6 -1.849255 C 6.428977 -1.582209 6.768466 -1.188744 7.018466 -.668856 C 7.271307 -.14897 7.397728 .488813 7.397728 1.244495 Z M 9.140625 -3.119141 Z M 10.197443 -3.119141 L 10.197443 5.608131 L 11.203125 5.608131 L 11.203125 2.386541 L 11.288352 2.386541 C 11.362216 2.500177 11.464489 2.645063 11.595171 2.821201 C 11.728694 3.000177 11.919034 3.159269 12.166193 3.298473 C 12.416193 3.440519 12.754261 3.511541 13.180398 3.511541 C 13.731534 3.511541 14.217329 3.373756 14.637784 3.098188 C 15.058239 2.82262 15.386364 2.431995 15.62216 1.926313 C 15.857955 1.420631 15.975853 .824041 15.975853 .136541 C 15.975853 -.556641 15.857955 -1.157492 15.62216 -1.666016 C 15.386364 -2.171698 15.059659 -2.563742 14.642046 -2.842152 C 14.224432 -3.11772 13.742898 -3.255505 13.197443 -3.255505 C 12.776988 -3.255505 12.440341 -3.185902 12.1875 -3.046698 C 11.934659 -2.904652 11.740057 -2.744141 11.603693 -2.565163 C 11.46733 -2.383345 11.362216 -2.232777 11.288352 -2.113459 L 11.169034 -2.113459 L 11.169034 -3.119141 L 10.197443 -3.119141 Z M 11.18608 .153587 C 11.18608 -.340731 11.258523 -.776812 11.403409 -1.154652 C 11.548296 -1.529652 11.759943 -1.823687 12.038352 -2.036755 C 12.316761 -2.246981 12.657671 -2.352095 13.06108 -2.352095 C 13.481534 -2.352095 13.832386 -2.241299 14.113636 -2.019709 C 14.397727 -1.795277 14.610796 -1.494141 14.752841 -1.116299 C 14.897728 -.735617 14.970171 -.312323 14.970171 .153587 C 14.970171 .613813 14.899148 1.028587 14.757102 1.397905 C 14.617898 1.770065 14.40625 2.064098 14.122159 2.280006 C 13.840909 2.498756 13.487216 2.608131 13.06108 2.608131 C 12.651989 2.608131 12.308239 2.504438 12.02983 2.297052 C 11.751421 2.092506 11.541193 1.805574 11.399148 1.436256 C 11.257103 1.06978 11.18608 .642223 11.18608 .153587 Z M 16.59375 -3.119141 Z M 22.150568 1.960405 L 21.24716 1.704723 C 21.190342 1.855291 21.106535 2.001598 20.995739 2.143644 C 20.887785 2.28853 20.740057 2.407848 20.552557 2.501598 C 20.365057 2.595348 20.125 2.642223 19.832386 2.642223 C 19.431818 2.642223 19.098013 2.549894 18.830967 2.365234 C 18.566763 2.183416 18.43466 1.951881 18.43466 1.670631 C 18.43466 1.420631 18.525568 1.223188 18.707386 1.078302 C 18.889204 .933416 19.173296 .812677 19.55966 .716087 L 20.53125 .477449 C 21.116477 .335403 21.552557 .118074 21.839489 -.174538 C 22.126421 -.464312 22.269886 -.837891 22.269886 -1.295277 C 22.269886 -1.670277 22.161932 -2.005505 21.946022 -2.300959 C 21.732954 -2.596413 21.43466 -2.829369 21.051136 -2.999823 C 20.667614 -3.170277 20.221592 -3.255505 19.713068 -3.255505 C 19.045454 -3.255505 18.492897 -3.110619 18.055397 -2.820845 C 17.617897 -2.531073 17.340909 -2.107777 17.224432 -1.550959 L 18.178978 -1.312323 C 18.269886 -1.664595 18.441761 -1.928799 18.694603 -2.104937 C 18.950285 -2.281073 19.28409 -2.369141 19.696022 -2.369141 C 20.164772 -2.369141 20.536932 -2.269709 20.8125 -2.070845 C 21.09091 -1.869141 21.230114 -1.627663 21.230114 -1.346413 C 21.230114 -1.119141 21.150568 -.928801 20.991478 -.775391 C 20.832386 -.619141 20.588068 -.502663 20.258522 -.425959 L 19.167614 -.170277 C 18.568182 -.028231 18.12784 .191938 17.84659 .490234 C 17.568182 .79137 17.428978 1.167791 17.428978 1.619495 C 17.428978 1.988813 17.532671 2.315519 17.740057 2.599609 C 17.950284 2.883699 18.235796 3.106712 18.596592 3.268644 C 18.960228 3.430576 19.37216 3.511541 19.832386 3.511541 C 20.480114 3.511541 20.988636 3.369495 21.357954 3.085405 C 21.730114 2.801315 21.994318 2.426315 22.150568 1.960405 Z M 22.863282 -3.119141 Z M 26.630328 3.426313 L 26.630328 2.574041 L 23.238282 2.574041 L 23.238282 3.426313 L 26.630328 3.426313 Z M 24.226918 4.994495 L 25.2326 4.994495 L 25.2326 -1.244141 C 25.2326 -1.528231 25.273793 -1.741299 25.356179 -1.883345 C 25.441407 -2.022549 25.54936 -2.116299 25.680043 -2.164595 C 25.813567 -2.210049 25.954192 -2.232777 26.101918 -2.232777 C 26.212714 -2.232777 26.303622 -2.227095 26.374646 -2.215731 C 26.445668 -2.201527 26.502486 -2.190165 26.5451 -2.181641 L 26.749646 -3.085051 C 26.681464 -3.110619 26.586293 -3.136187 26.464135 -3.161755 C 26.341975 -3.190165 26.187146 -3.204369 25.999646 -3.204369 C 25.715556 -3.204369 25.437146 -3.14329 25.164418 -3.02113 C 24.894532 -2.89897 24.6701 -2.712891 24.491122 -2.462891 C 24.314986 -2.212891 24.226918 -1.897551 24.226918 -1.516869 L 24.226918 4.994495 Z M 27.222657 -3.119141 Z M 30.069249 -3.272551 C 29.654475 -3.272551 29.278054 -3.194426 28.939986 -3.038176 C 28.601918 -2.879084 28.333453 -2.650391 28.134589 -2.352095 C 27.935725 -2.050959 27.836293 -1.687323 27.836293 -1.261187 C 27.836293 -.886187 27.910157 -.582209 28.057885 -.349255 C 28.20561 -.113459 28.403054 .071199 28.650214 .204723 C 28.897374 .338245 29.1701 .437677 29.468396 .503019 C 29.769532 .571201 30.072089 .625177 30.376067 .664949 C 30.773793 .716087 31.096236 .754438 31.343396 .780006 C 31.593396 .808416 31.775214 .855291 31.88885 .920631 C 32.005327 .985973 32.063566 1.099609 32.063566 1.261541 L 32.063566 1.295631 C 32.063566 1.716085 31.948508 2.042791 31.718396 2.275745 C 31.491122 2.508699 31.145953 2.625177 30.682885 2.625177 C 30.20277 2.625177 29.82635 2.520063 29.553624 2.309837 C 29.280896 2.099609 29.089135 1.875177 28.978339 1.636541 L 28.023793 1.977451 C 28.194247 2.375177 28.42152 2.684837 28.70561 2.906427 C 28.992543 3.130859 29.305043 3.287109 29.64311 3.375177 C 29.98402 3.466087 30.319247 3.511541 30.648793 3.511541 C 30.85902 3.511541 31.100499 3.485973 31.373225 3.434837 C 31.648793 3.386541 31.91442 3.28569 32.1701 3.13228 C 32.428625 2.97887 32.643114 2.747337 32.813566 2.437677 C 32.98402 2.128017 33.06925 1.713245 33.06925 1.193359 L 33.06925 -3.119141 L 32.063566 -3.119141 L 32.063566 -2.232777 L 32.01243 -2.232777 C 31.944247 -2.374823 31.83061 -2.526812 31.67152 -2.688744 C 31.51243 -2.850676 31.300782 -2.988459 31.036578 -3.102095 C 30.772374 -3.215733 30.44993 -3.272551 30.069249 -3.272551 Z M 30.222657 -2.369141 C 30.620383 -2.369141 30.95561 -2.291016 31.228339 -2.134766 C 31.503907 -1.978516 31.711293 -1.776812 31.850497 -1.529652 C 31.992543 -1.282492 32.063566 -1.022549 32.063566 -.749823 L 32.063566 .170631 C 32.02095 .119495 31.927203 .07262 31.782317 .030006 C 31.64027 -.009766 31.475497 -.045277 31.287997 -.076527 C 31.103339 -.104937 30.922942 -.130505 30.746804 -.153231 C 30.573508 -.173119 30.432883 -.190165 30.324929 -.204369 C 30.063567 -.238459 29.819249 -.293858 29.591975 -.370562 C 29.367543 -.444424 29.185725 -.556641 29.04652 -.707209 C 28.910157 -.854935 28.841975 -1.056641 28.841975 -1.312323 C 28.841975 -1.661755 28.971236 -1.925959 29.22976 -2.104937 C 29.491122 -2.281073 29.822089 -2.369141 30.222657 -2.369141 Z M 33.984376 -3.119141 Z M 37.56392 -3.255505 C 36.950284 -3.255505 36.421876 -3.110619 35.978696 -2.820845 C 35.53551 -2.531073 35.194604 -2.131926 34.955968 -1.623402 C 34.71733 -1.11488 34.59801 -.533915 34.59801 .119495 C 34.59801 .784269 34.72017 1.370916 34.96449 1.879438 C 35.211648 2.390802 35.555398 2.789949 35.99574 3.076881 C 36.43892 3.366655 36.955968 3.511541 37.546876 3.511541 C 38.007104 3.511541 38.421876 3.426313 38.791196 3.255859 C 39.16051 3.085405 39.463068 2.846769 39.698865 2.539951 C 39.934659 2.233133 40.080965 1.875177 40.137784 1.466087 L 39.132104 1.466087 C 39.055398 1.764383 38.88494 2.028587 38.62074 2.258701 C 38.359376 2.491655 38.007104 2.608131 37.56392 2.608131 C 37.171876 2.608131 36.828126 2.505859 36.53267 2.301313 C 36.240056 2.099609 36.011365 1.814098 35.846593 1.44478 C 35.68466 1.078302 35.603696 .647905 35.603696 .153587 C 35.603696 -.352095 35.68324 -.792437 35.84233 -1.167437 C 36.00426 -1.542437 36.231534 -1.83363 36.524148 -2.041016 C 36.819604 -2.248402 37.166196 -2.352095 37.56392 -2.352095 C 37.825284 -2.352095 38.0625 -2.306641 38.27557 -2.215731 C 38.488637 -2.124823 38.669034 -1.994141 38.81676 -1.823687 C 38.96449 -1.653233 39.069604 -1.448687 39.132104 -1.210051 L 40.137784 -1.210051 C 40.080965 -1.596413 39.94034 -1.944424 39.715909 -2.254084 C 39.494318 -2.560902 39.200284 -2.80522 38.83381 -2.987038 C 38.470174 -3.166016 38.046876 -3.255505 37.56392 -3.255505 Z M 40.6875 -3.119141 Z M 42.613637 5.608131 L 42.613637 -3.119141 L 41.607957 -3.119141 L 41.607957 5.608131 L 42.613637 5.608131 Z M 43.535158 -3.119141 Z M 47.19993 -3.255505 C 46.56925 -3.255505 46.02521 -3.116301 45.567827 -2.837891 C 45.11328 -2.556641 44.76243 -2.164595 44.51527 -1.661755 C 44.27095 -1.156073 44.148794 -.568005 44.148794 .102449 C 44.148794 .772903 44.27095 1.363813 44.51527 1.875177 C 44.76243 2.389381 45.10618 2.789949 45.54652 3.076881 C 45.9897 3.366655 46.50675 3.511541 47.097658 3.511541 C 47.438566 3.511541 47.775217 3.454723 48.1076 3.341087 C 48.439989 3.227449 48.742544 3.042791 49.01527 2.787109 C 49.288 2.534269 49.50533 2.199041 49.66726 1.781427 C 49.82919 1.363813 49.910158 .849609 49.910158 .238813 L 49.910158 -.187323 L 44.8647 -.187323 L 44.8647 .681995 L 48.88743 .681995 C 48.88743 1.051313 48.813566 1.380859 48.66584 1.670631 C 48.520956 1.960405 48.313566 2.189098 48.04368 2.356712 C 47.776636 2.524324 47.461294 2.608131 47.097658 2.608131 C 46.697088 2.608131 46.3505 2.508699 46.057886 2.309837 C 45.768114 2.113813 45.5451 1.858131 45.38885 1.542791 C 45.2326 1.227451 45.154478 .889383 45.154478 .528587 L 45.154478 -.050959 C 45.154478 -.545277 45.239706 -.964312 45.410158 -1.308062 C 45.583456 -1.648972 45.82351 -1.908915 46.130327 -2.087891 C 46.437147 -2.264027 46.79368 -2.352095 47.19993 -2.352095 C 47.464136 -2.352095 47.70277 -2.315163 47.91584 -2.241301 C 48.13175 -2.164597 48.317827 -2.050959 48.474077 -1.900391 C 48.630327 -1.746981 48.751066 -1.556641 48.836294 -1.329369 L 49.807886 -1.602095 C 49.705614 -1.931641 49.533739 -2.221413 49.29226 -2.471413 C 49.05078 -2.718573 48.752489 -2.911755 48.397375 -3.050959 C 48.04226 -3.187323 47.64311 -3.255505 47.19993 -3.255505 Z "/>
<symbol id="font_0_15">
</symbol>
<symbol id="font_0_17">
</symbol>
<symbol id="font_0_16">
</symbol>
<symbol id="font_0_18">
</symbol>
<symbol id="font_0_13">
</symbol>
<symbol id="font_0_10">
</symbol>
<symbol id="font_0_f">
</symbol>
<symbol id="font_0_11">
</symbol>
<use xlink:href="#font_0_15" transform="matrix(33.333333,0,0,-33.333333,0,243.05554)"/>
<use xlink:href="#font_0_1" transform="matrix(33.333333,0,0,-33.333333,25.066666,243.05554)"/>
<use xlink:href="#font_0_17" transform="matrix(33.333333,0,0,-33.333333,43.966547,243.05554)"/>
<use xlink:href="#font_0_16" transform="matrix(33.333333,0,0,-33.333333,61.933214,243.05554)"/>
<use xlink:href="#font_0_18" transform="matrix(33.333333,0,0,-33.333333,0,284.7222)"/>
<use xlink:href="#font_0_13" transform="matrix(33.333333,0,0,-33.333333,25.366665,284.7222)"/>
<use xlink:href="#font_0_10" transform="matrix(33.333333,0,0,-33.333333,46.033334,284.7222)"/>
<use xlink:href="#font_0_7" transform="matrix(33.333333,0,0,-33.333333,63.43333,284.7222)"/>
<use xlink:href="#font_0_8" transform="matrix(33.333333,0,0,-33.333333,75.53333,284.7222)"/>
<use xlink:href="#font_0_f" transform="matrix(33.333333,0,0,-33.333333,94.3,284.7222)"/>
<use xlink:href="#font_0_11" transform="matrix(33.333333,0,0,-33.333333,112.9,284.7222)"/>
<use xlink:href="#font_0_1" transform="matrix(33.333333,0,0,-33.333333,120.8,284.7222)"/>
<path transform="matrix(2.7777777,0,0,-2.7777777,533.3333,483.2058)" d="M 0 -.545898 Z M 1.056818 -.545898 L 1.056818 8.181375 L 2.113636 8.181375 L 2.113636 4.295011 L 6.767046 4.295011 L 6.767046 8.181375 L 7.823864 8.181375 L 7.823864 -.545898 L 6.767046 -.545898 L 6.767046 3.357511 L 2.113636 3.357511 L 2.113636 -.545898 L 1.056818 -.545898 Z M 8.882812 -.545898 Z M 9.803267 -.545898 L 9.803267 5.999557 L 10.808949 5.999557 L 10.808949 -.545898 L 9.803267 -.545898 Z M 10.314631 7.090465 C 10.118608 7.090465 9.949574 7.157227 9.807528 7.29075 C 9.668324 7.424272 9.598722 7.584784 9.598722 7.772284 C 9.598722 7.959784 9.668324 8.120295 9.807528 8.253818 C 9.949574 8.387341 10.118608 8.454102 10.314631 8.454102 C 10.510653 8.454102 10.678267 8.387341 10.817472 8.253818 C 10.959517 8.120295 11.03054 7.959784 11.03054 7.772284 C 11.03054 7.584784 10.959517 7.424272 10.817472 7.29075 C 10.678267 7.157227 10.510653 7.090465 10.314631 7.090465 Z M 11.730469 -.545898 Z M 15.122515 -.682262 C 14.57706 -.682262 14.095526 -.544478 13.677912 -.268909 C 13.260299 .0095 12.933594 .401545 12.697799 .907227 C 12.462003 1.41575 12.344105 2.016602 12.344105 2.709784 C 12.344105 3.397284 12.462003 3.993875 12.697799 4.499557 C 12.933594 5.005238 13.261719 5.395863 13.682174 5.671432 C 14.102628 5.947 14.588423 6.084784 15.13956 6.084784 C 15.565697 6.084784 15.902345 6.013761 16.149504 5.871715 C 16.399504 5.732511 16.589844 5.57342 16.720526 5.394443 C 16.85405 5.218306 16.957743 5.07342 17.031605 4.959784 L 17.116833 4.959784 L 17.116833 8.181375 L 18.122515 8.181375 L 18.122515 -.545898 L 17.150923 -.545898 L 17.150923 .459784 L 17.031605 .459784 C 16.957743 .340466 16.852629 .189898 16.716265 .008079 C 16.5799 -.170898 16.385298 -.33141 16.132458 -.473455 C 15.879617 -.61266 15.542969 -.682262 15.122515 -.682262 Z M 15.258878 .221147 C 15.662287 .221147 16.003197 .326261 16.281605 .536488 C 16.560015 .749557 16.771662 1.043591 16.916548 1.418591 C 17.061436 1.796432 17.133879 2.232511 17.133879 2.726829 C 17.133879 3.215466 17.062857 3.643022 16.92081 4.0095 C 16.778765 4.378818 16.568537 4.665749 16.290129 4.870295 C 16.011719 5.077681 15.667969 5.181375 15.258878 5.181375 C 14.832742 5.181375 14.477628 5.072 14.193537 4.85325 C 13.912287 4.63734 13.700639 4.343306 13.558594 3.971147 C 13.419389 3.601829 13.349787 3.187056 13.349787 2.726829 C 13.349787 2.26092 13.42081 1.837625 13.562855 1.456943 C 13.707742 1.079102 13.92081 .777966 14.20206 .553534 C 14.486151 .331943 14.838423 .221147 15.258878 .221147 Z M 19.183594 -.545898 Z M 22.57564 -.682262 C 22.030186 -.682262 21.54865 -.544478 21.131037 -.268909 C 20.713423 .0095 20.386719 .401545 20.150923 .907227 C 19.915127 1.41575 19.79723 2.016602 19.79723 2.709784 C 19.79723 3.397284 19.915127 3.993875 20.150923 4.499557 C 20.386719 5.005238 20.714844 5.395863 21.135298 5.671432 C 21.555752 5.947 22.041548 6.084784 22.592684 6.084784 C 23.018822 6.084784 23.355469 6.013761 23.602629 5.871715 C 23.852629 5.732511 24.042969 5.57342 24.17365 5.394443 C 24.307175 5.218306 24.410868 5.07342 24.48473 4.959784 L 24.569958 4.959784 L 24.569958 8.181375 L 25.57564 8.181375 L 25.57564 -.545898 L 24.604048 -.545898 L 24.604048 .459784 L 24.48473 .459784 C 24.410868 .340466 24.305754 .189898 24.16939 .008079 C 24.033026 -.170898 23.838423 -.33141 23.585583 -.473455 C 23.332743 -.61266 22.996094 -.682262 22.57564 -.682262 Z M 22.712004 .221147 C 23.115412 .221147 23.45632 .326261 23.73473 .536488 C 24.01314 .749557 24.224787 1.043591 24.369673 1.418591 C 24.51456 1.796432 24.587004 2.232511 24.587004 2.726829 C 24.587004 3.215466 24.515982 3.643022 24.373936 4.0095 C 24.23189 4.378818 24.021662 4.665749 23.743254 4.870295 C 23.464844 5.077681 23.121094 5.181375 22.712004 5.181375 C 22.285866 5.181375 21.930752 5.072 21.646662 4.85325 C 21.365412 4.63734 21.153765 4.343306 21.011719 3.971147 C 20.872515 3.601829 20.802912 3.187056 20.802912 2.726829 C 20.802912 2.26092 20.873934 1.837625 21.01598 1.456943 C 21.160868 1.079102 21.373936 .777966 21.655186 .553534 C 21.939276 .331943 22.29155 .221147 22.712004 .221147 Z M 26.636719 -.545898 Z M 30.30149 -.682262 C 29.670809 -.682262 29.126776 -.543057 28.66939 -.264648 C 28.214844 .016602 27.863993 .408647 27.616833 .911488 C 27.372515 1.41717 27.250355 2.005238 27.250355 2.675693 C 27.250355 3.346148 27.372515 3.937056 27.616833 4.44842 C 27.863993 4.962624 28.207743 5.363193 28.648083 5.650125 C 29.091265 5.939897 29.608309 6.084784 30.199219 6.084784 C 30.540129 6.084784 30.876776 6.027966 31.209162 5.91433 C 31.541548 5.800693 31.844105 5.616034 32.116834 5.360352 C 32.38956 5.107511 32.60689 4.772284 32.76882 4.35467 C 32.93075 3.937056 33.01172 3.422852 33.01172 2.812057 L 33.01172 2.38592 L 27.966265 2.38592 L 27.966265 3.255238 L 31.98899 3.255238 C 31.98899 3.624556 31.915127 3.954102 31.7674 4.243875 C 31.622515 4.533647 31.415129 4.762341 31.14524 4.929954 C 30.878195 5.097568 30.562855 5.181375 30.199219 5.181375 C 29.79865 5.181375 29.452059 5.081943 29.159447 4.883079 C 28.869673 4.687056 28.646662 4.431374 28.490412 4.116034 C 28.334162 3.800693 28.256037 3.462624 28.256037 3.101829 L 28.256037 2.522284 C 28.256037 2.027966 28.341265 1.608932 28.511719 1.265182 C 28.685015 .924273 28.925072 .664329 29.23189 .485352 C 29.538708 .309215 29.89524 .221147 30.30149 .221147 C 30.565695 .221147 30.804333 .258079 31.0174 .331943 C 31.23331 .408648 31.41939 .522284 31.57564 .672852 C 31.73189 .826261 31.852629 1.016602 31.937855 1.243875 L 32.909448 .971147 C 32.807176 .641602 32.6353 .351829 32.39382 .101829 C 32.152345 -.14533 31.854048 -.338511 31.498934 -.477716 C 31.143822 -.61408 30.744673 -.682262 30.30149 -.682262 Z M 33.621095 -.545898 Z M 35.54723 3.391602 L 35.54723 -.545898 L 34.54155 -.545898 L 34.54155 5.999557 L 35.513139 5.999557 L 35.513139 4.976829 L 35.598367 4.976829 C 35.751775 5.309216 35.98473 5.576261 36.29723 5.777965 C 36.60973 5.982511 37.013139 6.084784 37.507459 6.084784 C 37.950639 6.084784 38.338426 5.993875 38.67081 5.812057 C 39.003198 5.633079 39.26172 5.360352 39.446378 4.993875 C 39.631036 4.630238 39.723367 4.170011 39.723367 3.613193 L 39.723367 -.545898 L 38.717687 -.545898 L 38.717687 3.545011 C 38.717687 4.059215 38.584165 4.459784 38.317117 4.746716 C 38.05007 5.036488 37.683595 5.181375 37.217687 5.181375 C 36.89666 5.181375 36.60973 5.111772 36.356889 4.972568 C 36.106889 4.833363 35.909448 4.630238 35.76456 4.363193 C 35.619676 4.096147 35.54723 3.772284 35.54723 3.391602 Z M 44.015626 -.545898 Z M 45.072446 -.545898 L 45.072446 8.181375 L 46.12926 8.181375 L 46.12926 .391602 L 50.18608 .391602 L 50.18608 -.545898 L 45.072446 -.545898 Z M 50.765626 -.545898 Z M 53.612218 -.699307 C 53.19744 -.699307 52.821023 -.621182 52.482957 -.464932 C 52.144887 -.305841 51.87642 -.077148 51.677556 .221147 C 51.47869 .522284 51.37926 .88592 51.37926 1.312057 C 51.37926 1.687057 51.453126 1.991034 51.600854 2.223988 C 51.74858 2.459784 51.946023 2.644443 52.19318 2.777966 C 52.44034 2.911489 52.713068 3.01092 53.011365 3.076261 C 53.3125 3.144443 53.61506 3.19842 53.919034 3.238193 C 54.31676 3.28933 54.639207 3.327682 54.886365 3.35325 C 55.136365 3.381659 55.318185 3.428534 55.43182 3.493875 C 55.548295 3.559215 55.606534 3.672852 55.606534 3.834784 L 55.606534 3.868875 C 55.606534 4.289329 55.491479 4.616034 55.261365 4.848988 C 55.034093 5.081943 54.688924 5.19842 54.225854 5.19842 C 53.74574 5.19842 53.369318 5.093306 53.096593 4.883079 C 52.823865 4.672852 52.632104 4.44842 52.521306 4.209784 L 51.56676 4.550693 C 51.737218 4.94842 51.96449 5.258079 52.24858 5.47967 C 52.53551 5.704102 52.84801 5.860352 53.18608 5.94842 C 53.52699 6.039329 53.862218 6.084784 54.19176 6.084784 C 54.40199 6.084784 54.643468 6.059216 54.916196 6.00808 C 55.19176 5.959784 55.457387 5.858932 55.71307 5.705523 C 55.971593 5.552113 56.18608 5.320579 56.356534 5.01092 C 56.52699 4.701261 56.612218 4.286488 56.612218 3.766602 L 56.612218 -.545898 L 55.606534 -.545898 L 55.606534 .340466 L 55.555398 .340466 C 55.487218 .19842 55.37358 .046431 55.21449 -.1155 C 55.055398 -.277432 54.84375 -.415216 54.579545 -.528853 C 54.315343 -.642489 53.992898 -.699307 53.612218 -.699307 Z M 53.765626 .204102 C 54.163354 .204102 54.49858 .282227 54.77131 .438477 C 55.046876 .594727 55.25426 .796432 55.393468 1.043591 C 55.53551 1.29075 55.606534 1.550693 55.606534 1.82342 L 55.606534 2.743875 C 55.56392 2.692738 55.47017 2.645863 55.325284 2.60325 C 55.18324 2.563477 55.018468 2.527966 54.830968 2.496716 C 54.64631 2.468307 54.465909 2.442738 54.289773 2.420011 C 54.116479 2.400125 53.975854 2.38308 53.867898 2.368875 C 53.606534 2.334784 53.362218 2.279386 53.134946 2.202682 C 52.91051 2.128818 52.72869 2.016602 52.58949 1.866034 C 52.453126 1.718307 52.384946 1.516602 52.384946 1.26092 C 52.384946 .911489 52.514207 .647284 52.772729 .468307 C 53.034093 .29217 53.365056 .204102 53.765626 .204102 Z M 57.29297 -.545898 Z M 58.86115 -3.000444 C 58.690698 -3.000444 58.538709 -2.986239 58.405187 -2.95783 C 58.27166 -2.932262 58.179334 -2.906694 58.128198 -2.881125 L 58.383878 -1.994762 C 58.628198 -2.057262 58.844106 -2.079989 59.031606 -2.062943 C 59.219106 -2.045898 59.3853 -1.962091 59.530187 -1.811523 C 59.67791 -1.663796 59.812856 -1.423739 59.935014 -1.091353 L 60.122514 -.579989 L 57.70206 5.999557 L 58.79297 5.999557 L 60.59979 .783648 L 60.66797 .783648 L 62.47479 5.999557 L 63.565698 5.999557 L 60.78729 -1.500443 C 60.66229 -1.838512 60.507459 -2.118341 60.3228 -2.339932 C 60.13814 -2.564364 59.923654 -2.730557 59.679334 -2.838512 C 59.437856 -2.946467 59.165128 -3.000444 58.86115 -3.000444 Z M 63.73828 -.545898 Z M 67.40305 -.682262 C 66.77237 -.682262 66.22834 -.543057 65.77095 -.264648 C 65.31641 .016602 64.96555 .408647 64.71839 .911488 C 64.474079 1.41717 64.35192 2.005238 64.35192 2.675693 C 64.35192 3.346148 64.474079 3.937056 64.71839 4.44842 C 64.96555 4.962624 65.3093 5.363193 65.74964 5.650125 C 66.192829 5.939897 66.70988 6.084784 67.30078 6.084784 C 67.641689 6.084784 67.97833 6.027966 68.31072 5.91433 C 68.64311 5.800693 68.94566 5.616034 69.21839 5.360352 C 69.49112 5.107511 69.70845 4.772284 69.870388 4.35467 C 70.03232 3.937056 70.11328 3.422852 70.11328 2.812057 L 70.11328 2.38592 L 65.067829 2.38592 L 65.067829 3.255238 L 69.09055 3.255238 C 69.09055 3.624556 69.01669 3.954102 68.868968 4.243875 C 68.724079 4.533647 68.51669 4.762341 68.2468 4.929954 C 67.97976 5.097568 67.66442 5.181375 67.30078 5.181375 C 66.900218 5.181375 66.55362 5.081943 66.26101 4.883079 C 65.97124 4.687056 65.74822 4.431374 65.59197 4.116034 C 65.43572 3.800693 65.3576 3.462624 65.3576 3.101829 L 65.3576 2.522284 C 65.3576 2.027966 65.442829 1.608932 65.61328 1.265182 C 65.786579 .924273 66.026638 .664329 66.33345 .485352 C 66.64027 .309215 66.9968 .221147 67.40305 .221147 C 67.66726 .221147 67.9059 .258079 68.118968 .331943 C 68.33487 .408648 68.52095 .522284 68.6772 .672852 C 68.83345 .826261 68.95419 1.016602 69.03942 1.243875 L 70.01101 .971147 C 69.90874 .641602 69.73686 .351829 69.495388 .101829 C 69.25391 -.14533 68.95561 -.338511 68.600498 -.477716 C 68.245388 -.61408 67.84624 -.682262 67.40305 -.682262 Z M 70.72266 -.545898 Z M 71.64311 -.545898 L 71.64311 5.999557 L 72.6147 5.999557 L 72.6147 5.01092 L 72.682888 5.01092 C 72.8022 5.334783 73.01811 5.597568 73.33061 5.799273 C 73.64311 6.000977 73.995388 6.10183 74.38743 6.10183 C 74.46129 6.10183 74.55362 6.100409 74.66442 6.097568 C 74.775218 6.094727 74.859027 6.090466 74.91584 6.084784 L 74.91584 5.062057 C 74.881748 5.070579 74.80362 5.083363 74.681468 5.100409 C 74.56215 5.120295 74.43572 5.130238 74.3022 5.130238 C 73.98402 5.130238 73.69993 5.063477 73.44993 4.929954 C 73.202777 4.799273 73.00675 4.617454 72.86186 4.3845 C 72.71982 4.154386 72.648799 3.891602 72.648799 3.596147 L 72.648799 -.545898 L 71.64311 -.545898 Z M 75.1875 -.545898 Z M 80.744319 4.533647 L 79.84091 4.277966 C 79.784099 4.428534 79.70029 4.57484 79.589488 4.716886 C 79.48154 4.861772 79.33381 4.981091 79.14631 5.074841 C 78.95881 5.168591 78.71875 5.215466 78.42614 5.215466 C 78.02557 5.215466 77.691768 5.123136 77.42471 4.938477 C 77.160518 4.756659 77.02841 4.525125 77.02841 4.243875 C 77.02841 3.993875 77.11932 3.796431 77.30114 3.651545 C 77.482959 3.506659 77.767047 3.38592 78.15341 3.289329 L 79.125 3.050693 C 79.71023 2.908648 80.1463 2.691318 80.433238 2.398704 C 80.72017 2.108931 80.86364 1.735352 80.86364 1.277966 C 80.86364 .902966 80.755687 .567739 80.53977 .272284 C 80.326709 -.023171 80.02841 -.256125 79.64489 -.42658 C 79.26137 -.597035 78.81534 -.682262 78.306819 -.682262 C 77.639209 -.682262 77.08665 -.537376 76.64915 -.247603 C 76.21165 .04217 75.93466 .465466 75.818187 1.022284 L 76.77273 1.26092 C 76.86363 .908647 77.03551 .644443 77.28835 .468307 C 77.54404 .29217 77.87784 .204102 78.28977 .204102 C 78.75852 .204102 79.130687 .303534 79.40625 .502398 C 79.684658 .704102 79.82386 .945579 79.82386 1.226829 C 79.82386 1.454102 79.744319 1.644443 79.58523 1.797852 C 79.42613 1.954102 79.181819 2.070579 78.85227 2.147284 L 77.76136 2.402966 C 77.16193 2.545011 76.72159 2.765182 76.44034 3.063477 C 76.161937 3.364614 76.02273 3.741034 76.02273 4.192738 C 76.02273 4.562057 76.12642 4.888761 76.33381 5.172852 C 76.54404 5.456943 76.829547 5.679954 77.19034 5.841886 C 77.55398 6.003818 77.96591 6.084784 78.42614 6.084784 C 79.07387 6.084784 79.58239 5.942738 79.951709 5.658648 C 80.32386 5.374556 80.588069 4.999556 80.744319 4.533647 Z "/>
<symbol id="font_0_24">
</symbol>
<symbol id="font_0_23">
</symbol>
<use xlink:href="#font_0_24" transform="matrix(33.333333,0,0,-33.333333,533.3333,484.7222)"/>
<use xlink:href="#font_0_23" transform="matrix(33.333333,0,0,-33.333333,558,484.7222)"/>
<use xlink:href="#font_0_c" transform="matrix(33.333333,0,0,-33.333333,565.89999,484.7222)"/>
<use xlink:href="#font_0_c" transform="matrix(33.333333,0,0,-33.333333,586.56668,484.7222)"/>
<use xlink:href="#font_0_1" transform="matrix(33.333333,0,0,-33.333333,607.23336,484.7222)"/>
<use xlink:href="#font_0_6" transform="matrix(33.333333,0,0,-33.333333,626.6333,484.7222)"/>
<use xlink:href="#font_0_9" transform="matrix(33.333333,0,0,-33.333333,646.1333,484.7222)"/>
<use xlink:href="#font_0_3" transform="matrix(33.333333,0,0,-33.333333,655.5,484.7222)"/>
<use xlink:href="#font_0_8" transform="matrix(33.333333,0,0,-33.333333,674.23336,484.7222)"/>
<use xlink:href="#font_0_2" transform="matrix(33.333333,0,0,-33.333333,692.33419,484.7222)"/>
<use xlink:href="#font_0_1" transform="matrix(33.333333,0,0,-33.333333,710.2105,484.7222)"/>
<use xlink:href="#font_0_0" transform="matrix(33.333333,0,0,-33.333333,729.61056,484.7222)"/>
<use xlink:href="#font_0_10" transform="matrix(33.333333,0,0,-33.333333,742.0105,484.7222)"/>
<path transform="matrix(2.7777777,0,0,-2.7777777,480.55555,168.05554)" d="M 10 0 C 15.522848 0 20 4.477152 20 10 C 20 15.522848 15.522848 20 10 20 C 4.477152 20 0 15.522848 0 10 C 0 4.477152 4.477152 0 10 0 Z " fill="#ffffff"/>
<path transform="matrix(2.7777777,0,0,-2.7777777,480.55555,170.83333)" d="M 19.5 11 C 19.5 5.753294 15.246706 1.5 10 1.5 L 10 .5 C 15.79899 .5 20.5 5.20101 20.5 11 L 19.5 11 Z M 10 1.5 C 4.753295 1.5 .5 5.753294 .5 11 L -.5 11 C -.5 5.20101 4.20101 .5 10 .5 L 10 1.5 Z M .5 11 C .5 16.246705 4.753295 20.5 10 20.5 L 10 21.5 C 4.20101 21.5 -.5 16.79899 -.5 11 L .5 11 Z M 10 20.5 C 15.246706 20.5 19.5 16.246705 19.5 11 L 20.5 11 C 20.5 16.79899 15.79899 21.5 10 21.5 L 10 20.5 Z " fill="#333333"/>
<path transform="matrix(2.7777777,0,0,-2.7777777,480.55555,279.16667)" d="M 10 0 C 15.522848 0 20 4.477152 20 10 C 20 15.522848 15.522848 20 10 20 C 4.477152 20 0 15.522848 0 10 C 0 4.477152 4.477152 0 10 0 Z " fill="#ffffff"/>
<path transform="matrix(2.7777777,0,0,-2.7777777,480.55555,281.94444)" d="M 19.5 11 C 19.5 5.753294 15.246706 1.5 10 1.5 L 10 .5 C 15.79899 .5 20.5 5.20101 20.5 11 L 19.5 11 Z M 10 1.5 C 4.753295 1.5 .5 5.753294 .5 11 L -.5 11 C -.5 5.20101 4.20101 .5 10 .5 L 10 1.5 Z M .5 11 C .5 16.246705 4.753295 20.5 10 20.5 L 10 21.5 C 4.20101 21.5 -.5 16.79899 -.5 11 L .5 11 Z M 10 20.5 C 15.246706 20.5 19.5 16.246705 19.5 11 L 20.5 11 C 20.5 16.79899 15.79899 21.5 10 21.5 L 10 20.5 Z " fill="#333333"/>
<path transform="matrix(2.7777777,0,0,-2.7777777,480.55555,390.27778)" d="M 10 0 C 15.522848 0 20 4.477152 20 10 C 20 15.522848 15.522848 20 10 20 C 4.477152 20 0 15.522848 0 10 C 0 4.477152 4.477152 0 10 0 Z " fill="#ffffff"/>
<path transform="matrix(2.7777777,0,0,-2.7777777,480.55555,393.05555)" d="M 19.5 11 C 19.5 5.753294 15.246706 1.5 10 1.5 L 10 .5 C 15.79899 .5 20.5 5.20101 20.5 11 L 19.5 11 Z M 10 1.5 C 4.753295 1.5 .5 5.753294 .5 11 L -.5 11 C -.5 5.20101 4.20101 .5 10 .5 L 10 1.5 Z M .5 11 C .5 16.246705 4.753295 20.5 10 20.5 L 10 21.5 C 4.20101 21.5 -.5 16.79899 -.5 11 L .5 11 Z M 10 20.5 C 15.246706 20.5 19.5 16.246705 19.5 11 L 20.5 11 C 20.5 16.79899 15.79899 21.5 10 21.5 L 10 20.5 Z " fill="#333333"/>
<path transform="matrix(2.7777777,0,0,-2.7777777,761.1111,56.944444)" d="M 10 0 C 15.522848 0 20 4.477152 20 10 C 20 15.522848 15.522848 20 10 20 C 4.477152 20 0 15.522848 0 10 C 0 4.477152 4.477152 0 10 0 Z " fill="#ffffff"/>
<path transform="matrix(2.7777777,0,0,-2.7777777,761.1111,59.72222)" d="M 19.5 11 C 19.5 5.753294 15.246706 1.5 10 1.5 L 10 .5 C 15.79899 .5 20.5 5.20101 20.5 11 L 19.5 11 Z M 10 1.5 C 4.753295 1.5 .5 5.753294 .5 11 L -.5 11 C -.5 5.20101 4.20101 .5 10 .5 L 10 1.5 Z M .5 11 C .5 16.246705 4.753295 20.5 10 20.5 L 10 21.5 C 4.20101 21.5 -.5 16.79899 -.5 11 L .5 11 Z M 10 20.5 C 15.246706 20.5 19.5 16.246705 19.5 11 L 20.5 11 C 20.5 16.79899 15.79899 21.5 10 21.5 L 10 20.5 Z " fill="#333333"/>
<path transform="matrix(2.7777777,0,0,-2.7777777,761.1111,168.05554)" d="M 10 0 C 15.522848 0 20 4.477152 20 10 C 20 15.522848 15.522848 20 10 20 C 4.477152 20 0 15.522848 0 10 C 0 4.477152 4.477152 0 10 0 Z " fill="#ffffff"/>
<path transform="matrix(2.7777777,0,0,-2.7777777,761.1111,170.83333)" d="M 19.5 11 C 19.5 5.753294 15.246706 1.5 10 1.5 L 10 .5 C 15.79899 .5 20.5 5.20101 20.5 11 L 19.5 11 Z M 10 1.5 C 4.753295 1.5 .5 5.753294 .5 11 L -.5 11 C -.5 5.20101 4.20101 .5 10 .5 L 10 1.5 Z M .5 11 C .5 16.246705 4.753295 20.5 10 20.5 L 10 21.5 C 4.20101 21.5 -.5 16.79899 -.5 11 L .5 11 Z M 10 20.5 C 15.246706 20.5 19.5 16.246705 19.5 11 L 20.5 11 C 20.5 16.79899 15.79899 21.5 10 21.5 L 10 20.5 Z " fill="#333333"/>
<path transform="matrix(2.7777777,0,0,-2.7777777,761.1111,279.16667)" d="M 10 0 C 15.522848 0 20 4.477152 20 10 C 20 15.522848 15.522848 20 10 20 C 4.477152 20 0 15.522848 0 10 C 0 4.477152 4.477152 0 10 0 Z " fill="#ffffff"/>
<path transform="matrix(2.7777777,0,0,-2.7777777,761.1111,281.94444)" d="M 19.5 11 C 19.5 5.753294 15.246706 1.5 10 1.5 L 10 .5 C 15.79899 .5 20.5 5.20101 20.5 11 L 19.5 11 Z M 10 1.5 C 4.753295 1.5 .5 5.753294 .5 11 L -.5 11 C -.5 5.20101 4.20101 .5 10 .5 L 10 1.5 Z M .5 11 C .5 16.246705 4.753295 20.5 10 20.5 L 10 21.5 C 4.20101 21.5 -.5 16.79899 -.5 11 L .5 11 Z M 10 20.5 C 15.246706 20.5 19.5 16.246705 19.5 11 L 20.5 11 C 20.5 16.79899 15.79899 21.5 10 21.5 L 10 20.5 Z " fill="#333333"/>
<path transform="matrix(2.7777777,0,0,-2.7777777,761.1111,390.27778)" d="M 10 0 C 15.522848 0 20 4.477152 20 10 C 20 15.522848 15.522848 20 10 20 C 4.477152 20 0 15.522848 0 10 C 0 4.477152 4.477152 0 10 0 Z " fill="#ffffff"/>
<path transform="matrix(2.7777777,0,0,-2.7777777,761.1111,393.05555)" d="M 19.5 11 C 19.5 5.753294 15.246706 1.5 10 1.5 L 10 .5 C 15.79899 .5 20.5 5.20101 20.5 11 L 19.5 11 Z M 10 1.5 C 4.753295 1.5 .5 5.753294 .5 11 L -.5 11 C -.5 5.20101 4.20101 .5 10 .5 L 10 1.5 Z M .5 11 C .5 16.246705 4.753295 20.5 10 20.5 L 10 21.5 C 4.20101 21.5 -.5 16.79899 -.5 11 L .5 11 Z M 10 20.5 C 15.246706 20.5 19.5 16.246705 19.5 11 L 20.5 11 C 20.5 16.79899 15.79899 21.5 10 21.5 L 10 20.5 Z " fill="#333333"/>
<path transform="matrix(2.7777777,0,0,-2.7777777,1041.6666,168.05554)" d="M 10 0 C 15.522848 0 20 4.477152 20 10 C 20 15.522848 15.522848 20 10 20 C 4.477152 20 0 15.522848 0 10 C 0 4.477152 4.477152 0 10 0 Z " fill="#ffffff"/>
<path transform="matrix(2.7777777,0,0,-2.7777777,1041.6666,170.83333)" d="M 19.5 11 C 19.5 5.753294 15.246706 1.5 10 1.5 L 10 .5 C 15.79899 .5 20.5 5.20101 20.5 11 L 19.5 11 Z M 10 1.5 C 4.753295 1.5 .5 5.753294 .5 11 L -.5 11 C -.5 5.20101 4.20101 .5 10 .5 L 10 1.5 Z M .5 11 C .5 16.246705 4.753295 20.5 10 20.5 L 10 21.5 C 4.20101 21.5 -.5 16.79899 -.5 11 L .5 11 Z M 10 20.5 C 15.246706 20.5 19.5 16.246705 19.5 11 L 20.5 11 C 20.5 16.79899 15.79899 21.5 10 21.5 L 10 20.5 Z " fill="#333333"/>
<path transform="matrix(2.7777777,0,0,-2.7777777,1041.6666,279.16667)" d="M 10 0 C 15.522848 0 20 4.477152 20 10 C 20 15.522848 15.522848 20 10 20 C 4.477152 20 0 15.522848 0 10 C 0 4.477152 4.477152 0 10 0 Z " fill="#ffffff"/>
<path transform="matrix(2.7777777,0,0,-2.7777777,1041.6666,281.94444)" d="M 19.5 11 C 19.5 5.753294 15.246706 1.5 10 1.5 L 10 .5 C 15.79899 .5 20.5 5.20101 20.5 11 L 19.5 11 Z M 10 1.5 C 4.753295 1.5 .5 5.753294 .5 11 L -.5 11 C -.5 5.20101 4.20101 .5 10 .5 L 10 1.5 Z M .5 11 C .5 16.246705 4.753295 20.5 10 20.5 L 10 21.5 C 4.20101 21.5 -.5 16.79899 -.5 11 L .5 11 Z M 10 20.5 C 15.246706 20.5 19.5 16.246705 19.5 11 L 20.5 11 C 20.5 16.79899 15.79899 21.5 10 21.5 L 10 20.5 Z " fill="#333333"/>
<path transform="matrix(2.7777777,0,0,-2.7777777,966.6666,482.77995)" d="M 0 -.699219 Z M 8.420455 3.664418 C 8.420455 2.743963 8.254262 1.948509 7.921875 1.278054 C 7.589489 .607599 7.133523 .090554 6.553978 -.273083 C 5.974432 -.636719 5.3125 -.818537 4.568182 -.818537 C 3.823864 -.818537 3.161932 -.636719 2.582386 -.273083 C 2.002841 .090554 1.546875 .607599 1.214489 1.278054 C .882102 1.948509 .715909 2.743963 .715909 3.664418 C .715909 4.584872 .882102 5.380327 1.214489 6.050781 C 1.546875 6.721236 2.002841 7.238281 2.582386 7.601918 C 3.161932 7.965554 3.823864 8.147372 4.568182 8.147372 C 5.3125 8.147372 5.974432 7.965554 6.553978 7.601918 C 7.133523 7.238281 7.589489 6.721236 7.921875 6.050781 C 8.254262 5.380327 8.420455 4.584872 8.420455 3.664418 Z M 7.397728 3.664418 C 7.397728 4.420099 7.271307 5.057883 7.018466 5.57777 C 6.768466 6.097656 6.428977 6.491122 6 6.758168 C 5.573864 7.025213 5.096591 7.158736 4.568182 7.158736 C 4.039773 7.158736 3.56108 7.025213 3.132102 6.758168 C 2.705966 6.491122 2.366477 6.097656 2.113636 5.57777 C 1.863636 5.057883 1.738636 4.420099 1.738636 3.664418 C 1.738636 2.908736 1.863636 2.270952 2.113636 1.751065 C 2.366477 1.231179 2.705966 .837713 3.132102 .570667 C 3.56108 .303622 4.039773 .170099 4.568182 .170099 C 5.096591 .170099 5.573864 .303622 6 .570667 C 6.428977 .837713 6.768466 1.231179 7.018466 1.751065 C 7.271307 2.270952 7.397728 2.908736 7.397728 3.664418 Z M 9.140625 -.699219 Z M 14.18608 1.976917 L 14.18608 5.846236 L 15.191761 5.846236 L 15.191761 -.699219 L 14.18608 -.699219 L 14.18608 .408736 L 14.117898 .408736 C 13.964489 .076349 13.725852 -.206321 13.401989 -.439276 C 13.078125 -.669389 12.669034 -.784446 12.174716 -.784446 C 11.765625 -.784446 11.401989 -.694957 11.083807 -.51598 C 10.765625 -.334162 10.515625 -.061435 10.333807 .302202 C 10.151989 .668679 10.06108 1.130326 10.06108 1.687145 L 10.06108 5.846236 L 11.066761 5.846236 L 11.066761 1.755327 C 11.066761 1.278054 11.200284 .897372 11.46733 .613281 C 11.737216 .32919 12.080966 .187145 12.49858 .187145 C 12.74858 .187145 13.002841 .251065 13.261364 .378906 C 13.522727 .506747 13.741477 .702769 13.917614 .966974 C 14.096591 1.231179 14.18608 1.567826 14.18608 1.976917 Z M 16.113282 -.699219 Z M 19.880328 5.846236 L 19.880328 4.993963 L 16.488282 4.993963 L 16.488282 5.846236 L 19.880328 5.846236 Z M 17.476918 7.414418 L 18.4826 7.414418 L 18.4826 1.175781 C 18.4826 .89169 18.523793 .678622 18.606179 .536577 C 18.691407 .397372 18.79936 .303622 18.930043 .255326 C 19.063567 .209872 19.204192 .187145 19.351918 .187145 C 19.462714 .187145 19.553622 .192827 19.624646 .20419 C 19.695668 .218395 19.752486 .229758 19.7951 .238281 L 19.999646 -.665128 C 19.931464 -.690696 19.836293 -.716264 19.714135 -.741833 C 19.591975 -.770242 19.437146 -.784446 19.249646 -.784446 C 18.965556 -.784446 18.687146 -.723367 18.414418 -.601208 C 18.144532 -.479049 17.9201 -.292969 17.741122 -.042969 C 17.564986 .207031 17.476918 .522372 17.476918 .903054 L 17.476918 7.414418 Z M 20.472657 -.699219 Z M 21.39311 -3.153765 L 21.39311 5.846236 L 22.364703 5.846236 L 22.364703 4.806463 L 22.48402 4.806463 C 22.557885 4.9201 22.660157 5.064986 22.790839 5.241122 C 22.924363 5.4201 23.114703 5.57919 23.36186 5.718395 C 23.61186 5.86044 23.949929 5.931463 24.376067 5.931463 C 24.927203 5.931463 25.412999 5.793679 25.833453 5.518111 C 26.253907 5.242543 26.582032 4.851918 26.817828 4.346236 C 27.053624 3.840554 27.17152 3.243963 27.17152 2.556463 C 27.17152 1.863281 27.053624 1.262429 26.817828 .753906 C 26.582032 .248224 26.255328 -.143821 25.837714 -.42223 C 25.4201 -.697799 24.938565 -.835583 24.39311 -.835583 C 23.972657 -.835583 23.636008 -.765981 23.383168 -.626776 C 23.130328 -.484731 22.935725 -.324219 22.79936 -.145242 C 22.662999 .036577 22.557885 .187145 22.48402 .306463 L 22.398793 .306463 L 22.398793 -3.153765 L 21.39311 -3.153765 Z M 22.381747 2.573508 C 22.381747 2.07919 22.45419 1.643111 22.599078 1.26527 C 22.743964 .89027 22.95561 .596236 23.23402 .383167 C 23.51243 .17294 23.853339 .067826 24.256747 .067826 C 24.6772 .067826 25.028054 .178622 25.309304 .400213 C 25.593396 .624645 25.806464 .925781 25.94851 1.303622 C 26.093396 1.684304 26.165839 2.107599 26.165839 2.573508 C 26.165839 3.033735 26.094817 3.448508 25.95277 3.817827 C 25.813567 4.189986 25.601918 4.48402 25.317828 4.699929 C 25.036578 4.918679 24.682885 5.028054 24.256747 5.028054 C 23.847657 5.028054 23.503907 4.924361 23.225499 4.716974 C 22.947089 4.512429 22.736863 4.225497 22.594817 3.856179 C 22.45277 3.489702 22.381747 3.062145 22.381747 2.573508 Z M 27.785157 -.699219 Z M 32.830614 1.976917 L 32.830614 5.846236 L 33.836294 5.846236 L 33.836294 -.699219 L 32.830614 -.699219 L 32.830614 .408736 L 32.76243 .408736 C 32.60902 .076349 32.370386 -.206321 32.04652 -.439276 C 31.722657 -.669389 31.313565 -.784446 30.819247 -.784446 C 30.410157 -.784446 30.04652 -.694957 29.728339 -.51598 C 29.410157 -.334162 29.160157 -.061435 28.978339 .302202 C 28.79652 .668679 28.70561 1.130326 28.70561 1.687145 L 28.70561 5.846236 L 29.711293 5.846236 L 29.711293 1.755327 C 29.711293 1.278054 29.844815 .897372 30.11186 .613281 C 30.381749 .32919 30.725499 .187145 31.14311 .187145 C 31.39311 .187145 31.647372 .251065 31.905896 .378906 C 32.16726 .506747 32.38601 .702769 32.562147 .966974 C 32.741125 1.231179 32.830614 1.567826 32.830614 1.976917 Z M 34.757814 -.699219 Z M 38.524858 5.846236 L 38.524858 4.993963 L 35.132814 4.993963 L 35.132814 5.846236 L 38.524858 5.846236 Z M 36.12145 7.414418 L 37.127134 7.414418 L 37.127134 1.175781 C 37.127134 .89169 37.168325 .678622 37.25071 .536577 C 37.335939 .397372 37.443895 .303622 37.574575 .255326 C 37.708097 .209872 37.84872 .187145 37.99645 .187145 C 38.107248 .187145 38.198156 .192827 38.269178 .20419 C 38.3402 .218395 38.39702 .229758 38.439634 .238281 L 38.644178 -.665128 C 38.575998 -.690696 38.480825 -.716264 38.358667 -.741833 C 38.236509 -.770242 38.081678 -.784446 37.894178 -.784446 C 37.610086 -.784446 37.331678 -.723367 37.05895 -.601208 C 36.789064 -.479049 36.56463 -.292969 36.385656 -.042969 C 36.20952 .207031 36.12145 .522372 36.12145 .903054 L 36.12145 7.414418 Z M 42.492189 -.699219 Z M 43.549009 -.699219 L 43.549009 8.028054 L 44.605825 8.028054 L 44.605825 .238281 L 48.662645 .238281 L 48.662645 -.699219 L 43.549009 -.699219 Z M 49.242189 -.699219 Z M 52.08878 -.852628 C 51.674005 -.852628 51.297586 -.774503 50.95952 -.618253 C 50.62145 -.459162 50.35298 -.230469 50.154119 .067826 C 49.955255 .368963 49.855825 .732599 49.855825 1.158736 C 49.855825 1.533736 49.929689 1.837713 50.077417 2.070667 C 50.225145 2.306463 50.422586 2.491122 50.669744 2.624645 C 50.9169 2.758168 51.18963 2.857599 51.487928 2.92294 C 51.789064 2.991122 52.09162 3.045099 52.395597 3.084872 C 52.793325 3.136009 53.11577 3.174361 53.362928 3.199929 C 53.612928 3.228338 53.794748 3.275213 53.908384 3.340554 C 54.024858 3.405895 54.083097 3.519531 54.083097 3.681463 L 54.083097 3.715554 C 54.083097 4.136009 53.96804 4.462713 53.737928 4.695668 C 53.510656 4.928622 53.165487 5.045099 52.702417 5.045099 C 52.2223 5.045099 51.84588 4.939986 51.573156 4.729759 C 51.300428 4.519531 51.108667 4.2951 50.997869 4.056463 L 50.043325 4.397372 C 50.21378 4.7951 50.44105 5.104759 50.725145 5.326349 C 51.012075 5.550781 51.324575 5.707031 51.662645 5.795099 C 52.00355 5.886009 52.33878 5.931463 52.668325 5.931463 C 52.87855 5.931463 53.12003 5.905895 53.392759 5.854759 C 53.668325 5.806464 53.93395 5.705611 54.189634 5.552202 C 54.448156 5.398793 54.662645 5.167259 54.833097 4.857599 C 55.00355 4.547941 55.08878 4.133168 55.08878 3.613281 L 55.08878 -.699219 L 54.083097 -.699219 L 54.083097 .187145 L 54.03196 .187145 C 53.96378 .045099 53.850145 -.10689 53.69105 -.268821 C 53.53196 -.430753 53.320314 -.568537 53.056108 -.682174 C 52.791906 -.79581 52.46946 -.852628 52.08878 -.852628 Z M 52.242189 .050781 C 52.639917 .050781 52.975145 .128906 53.24787 .285156 C 53.523439 .441406 53.730825 .643111 53.87003 .89027 C 54.012075 1.137429 54.083097 1.397372 54.083097 1.670099 L 54.083097 2.590554 C 54.04048 2.539417 53.94673 2.492542 53.801847 2.449929 C 53.6598 2.410156 53.49503 2.374645 53.30753 2.343395 C 53.12287 2.314986 52.94247 2.289417 52.766336 2.26669 C 52.59304 2.246804 52.452417 2.229759 52.34446 2.215554 C 52.083097 2.181463 51.83878 2.126065 51.611509 2.049361 C 51.387075 1.975497 51.205255 1.863281 51.06605 1.712713 C 50.929689 1.564986 50.861509 1.363281 50.861509 1.107599 C 50.861509 .758168 50.99077 .493963 51.24929 .314986 C 51.510656 .138849 51.841619 .050781 52.242189 .050781 Z M 55.76953 -.699219 Z M 57.33771 -3.153765 C 57.16726 -3.153765 57.01527 -3.13956 56.88175 -3.111151 C 56.748224 -3.085583 56.655897 -3.060015 56.60476 -3.034446 L 56.86044 -2.148083 C 57.10476 -2.210583 57.320669 -2.23331 57.508169 -2.216264 C 57.695669 -2.199219 57.861864 -2.115412 58.00675 -1.964844 C 58.154474 -1.817117 58.289419 -1.57706 58.411577 -1.244674 L 58.599077 -.73331 L 56.178625 5.846236 L 57.26953 5.846236 L 59.07635 .630327 L 59.14453 .630327 L 60.95135 5.846236 L 62.04226 5.846236 L 59.26385 -1.653764 C 59.13885 -1.991833 58.98402 -2.271662 58.799364 -2.493253 C 58.614706 -2.717685 58.400217 -2.883878 58.155897 -2.991833 C 57.914419 -3.099788 57.64169 -3.153765 57.33771 -3.153765 Z M 62.214845 -.699219 Z M 65.879619 -.835583 C 65.24893 -.835583 64.7049 -.696378 64.24751 -.417969 C 63.79297 -.136719 63.442117 .255326 63.194959 .758167 C 62.950639 1.263849 62.82848 1.851917 62.82848 2.522372 C 62.82848 3.192827 62.950639 3.783736 63.194959 4.295099 C 63.442117 4.809304 63.785867 5.209872 64.226207 5.496804 C 64.66939 5.786577 65.18644 5.931463 65.77734 5.931463 C 66.11825 5.931463 66.454898 5.874645 66.787288 5.761009 C 67.119678 5.647373 67.422229 5.462713 67.694957 5.207031 C 67.96768 4.954191 68.18501 4.618963 68.34695 4.201349 C 68.50888 3.783736 68.58984 3.269531 68.58984 2.658736 L 68.58984 2.232599 L 63.544389 2.232599 L 63.544389 3.101917 L 67.567119 3.101917 C 67.567119 3.471236 67.493259 3.800782 67.34553 4.090554 C 67.20064 4.380327 66.993259 4.60902 66.723369 4.776634 C 66.45632 4.944247 66.14098 5.028054 65.77734 5.028054 C 65.37678 5.028054 65.03018 4.928622 64.73757 4.729759 C 64.4478 4.533736 64.224788 4.278054 64.068538 3.962713 C 63.91229 3.647372 63.834165 3.309304 63.834165 2.948508 L 63.834165 2.368963 C 63.834165 1.874645 63.91939 1.455611 64.08984 1.111861 C 64.26314 .770952 64.5032 .511008 64.81001 .332031 C 65.11683 .155894 65.473369 .067826 65.879619 .067826 C 66.14382 .067826 66.38246 .104758 66.59553 .178622 C 66.81143 .255327 66.99751 .368963 67.15376 .519531 C 67.31001 .67294 67.430759 .863281 67.51598 1.090554 L 68.48757 .817826 C 68.3853 .488281 68.213428 .198508 67.97195 -.051492 C 67.73047 -.298651 67.432178 -.491832 67.07706 -.631037 C 66.72195 -.767401 66.3228 -.835583 65.879619 -.835583 Z M 69.19922 -.699219 Z M 70.119678 -.699219 L 70.119678 5.846236 L 71.09126 5.846236 L 71.09126 4.857599 L 71.15945 4.857599 C 71.27876 5.181463 71.494678 5.444247 71.807178 5.645952 C 72.119678 5.847657 72.47195 5.948509 72.86399 5.948509 C 72.93785 5.948509 73.03018 5.947089 73.14098 5.944247 C 73.25178 5.941407 73.33559 5.937145 73.3924 5.931463 L 73.3924 4.908736 C 73.35831 4.917259 73.28018 4.930043 73.15803 4.947088 C 73.03871 4.966975 72.912288 4.976918 72.77876 4.976918 C 72.46058 4.976918 72.17649 4.910156 71.92649 4.776634 C 71.67934 4.645952 71.483318 4.464134 71.338428 4.231179 C 71.19638 4.001066 71.12536 3.738281 71.12536 3.442827 L 71.12536 -.699219 L 70.119678 -.699219 Z "/>
<use xlink:href="#font_0_18" transform="matrix(33.333333,0,0,-33.333333,966.6666,484.7222)"/>
<use xlink:href="#font_0_4" transform="matrix(33.333333,0,0,-33.333333,992.03329,484.7222)"/>
<use xlink:href="#font_0_7" transform="matrix(33.333333,0,0,-33.333333,1011.36666,484.7222)"/>
<use xlink:href="#font_0_5" transform="matrix(33.333333,0,0,-33.333333,1023.4666,484.7222)"/>
<use xlink:href="#font_0_4" transform="matrix(33.333333,0,0,-33.333333,1043.7666,484.7222)"/>
<use xlink:href="#font_0_7" transform="matrix(33.333333,0,0,-33.333333,1063.1,484.7222)"/>
<use xlink:href="#font_0_9" transform="matrix(33.333333,0,0,-33.333333,1075.2,484.7222)"/>
<use xlink:href="#font_0_3" transform="matrix(33.333333,0,0,-33.333333,1084.5667,484.7222)"/>
<use xlink:href="#font_0_8" transform="matrix(33.333333,0,0,-33.333333,1103.2999,484.7222)"/>
<use xlink:href="#font_0_2" transform="matrix(33.333333,0,0,-33.333333,1121.4008,484.7222)"/>
<use xlink:href="#font_0_1" transform="matrix(33.333333,0,0,-33.333333,1139.2772,484.7222)"/>
<use xlink:href="#font_0_0" transform="matrix(33.333333,0,0,-33.333333,1158.6773,484.7222)"/>
<path transform="matrix(2.7777777,0,0,-2.7777777,1161.1111,149.11566)" d="M .384766 -.818359 Z M 4.782493 7.908914 L 5.839311 7.908914 L 5.839311 1.670277 C 5.839311 1.113459 5.737039 .640448 5.532493 .251243 C 5.327948 -.137962 5.039595 -.433416 4.667436 -.63512 C 4.295277 -.836825 3.856357 -.937677 3.350675 -.937677 C 2.873402 -.937677 2.448686 -.851029 2.076527 -.677734 C 1.704368 -.501597 1.411754 -.251597 1.198686 .072266 C .985618 .39613 .879084 .781073 .879084 1.227096 L 1.918857 1.227096 C 1.918857 .979937 1.979936 .764027 2.102095 .579368 C 2.227095 .39755 2.39755 .255505 2.613459 .153232 C 2.829368 .050959 3.075107 -.000177 3.350675 -.000177 C 3.654652 -.000177 3.913175 .063743 4.126243 .191584 C 4.339312 .319425 4.501243 .506925 4.612039 .754084 C 4.725675 1.004084 4.782493 1.309482 4.782493 1.670277 L 4.782493 7.908914 Z M 6.900391 -.818359 Z M 11.945846 1.857777 L 11.945846 5.727096 L 12.951527 5.727096 L 12.951527 -.818359 L 11.945846 -.818359 L 11.945846 .289596 L 11.877664 .289596 C 11.724255 -.042791 11.485618 -.325461 11.161755 -.558416 C 10.837891 -.788529 10.4288 -.903586 9.934482 -.903586 C 9.525391 -.903586 9.161755 -.814097 8.843573 -.63512 C 8.525391 -.453302 8.275391 -.180575 8.093573 .183062 C 7.911754 .549539 7.820845 1.011186 7.820845 1.568005 L 7.820845 5.727096 L 8.826527 5.727096 L 8.826527 1.636187 C 8.826527 1.158914 8.96005 .778232 9.227096 .494141 C 9.496982 .21005 9.840732 .068005 10.258346 .068005 C 10.508346 .068005 10.762607 .131925 11.02113 .259766 C 11.282493 .387607 11.501243 .583629 11.67738 .847834 C 11.856357 1.112039 11.945846 1.448686 11.945846 1.857777 Z M 13.873047 -.818359 Z M 14.793502 -.818359 L 14.793502 5.727096 L 15.765092 5.727096 L 15.765092 4.704368 L 15.85032 4.704368 C 15.986683 5.0538 16.206854 5.325107 16.510832 5.518289 C 16.814808 5.714311 17.179865 5.812323 17.606 5.812323 C 18.037819 5.812323 18.397194 5.714311 18.684126 5.518289 C 18.9739 5.325107 19.19975 5.0538 19.361683 4.704368 L 19.429865 4.704368 C 19.597479 5.042437 19.8489 5.310902 20.184126 5.509766 C 20.519354 5.71147 20.921343 5.812323 21.390093 5.812323 C 21.975319 5.812323 22.454012 5.629084 22.826172 5.262607 C 23.198332 4.89897 23.38441 4.332209 23.38441 3.562323 L 23.38441 -.818359 L 22.378729 -.818359 L 22.378729 3.562323 C 22.378729 4.045277 22.246626 4.390448 21.982422 4.597834 C 21.718218 4.80522 21.407137 4.908914 21.049183 4.908914 C 20.588957 4.908914 20.232422 4.769709 19.979582 4.4913 C 19.72674 4.215732 19.600319 3.8663 19.600319 3.443005 L 19.600319 -.818359 L 18.577593 -.818359 L 18.577593 3.664596 C 18.577593 4.036754 18.456854 4.33647 18.215376 4.563743 C 17.9739 4.793857 17.662819 4.908914 17.282137 4.908914 C 17.020775 4.908914 16.776457 4.839311 16.549183 4.700107 C 16.32475 4.560902 16.142933 4.36772 16.003729 4.120561 C 15.867365 3.876243 15.799183 3.593572 15.799183 3.27255 L 15.799183 -.818359 L 14.793502 -.818359 Z M 24.302735 -.818359 Z M 25.223189 -3.272905 L 25.223189 5.727096 L 26.19478 5.727096 L 26.19478 4.687323 L 26.314099 4.687323 C 26.387963 4.800959 26.490235 4.945845 26.620917 5.121982 C 26.75444 5.300959 26.94478 5.46005 27.191939 5.599254 C 27.441939 5.7413 27.780007 5.812323 28.206145 5.812323 C 28.75728 5.812323 29.243077 5.674539 29.66353 5.398971 C 30.083985 5.123402 30.41211 4.732777 30.647906 4.227096 C 30.883702 3.721414 31.001599 3.124823 31.001599 2.437323 C 31.001599 1.744141 30.883702 1.143289 30.647906 .634766 C 30.41211 .129084 30.085406 -.262961 29.667792 -.54137 C 29.250178 -.816939 28.768643 -.954723 28.223189 -.954723 C 27.802735 -.954723 27.466086 -.885121 27.213246 -.745916 C 26.960406 -.603871 26.765803 -.443359 26.629439 -.264382 C 26.493077 -.082563 26.387963 .068005 26.314099 .187323 L 26.22887 .187323 L 26.22887 -3.272905 L 25.223189 -3.272905 Z M 26.211825 2.454368 C 26.211825 1.96005 26.284268 1.523971 26.429156 1.14613 C 26.574042 .77113 26.785689 .477096 27.064099 .264027 C 27.342509 .0538 27.683417 -.051314 28.086825 -.051314 C 28.507279 -.051314 28.858132 .059482 29.139382 .281073 C 29.423474 .505505 29.636542 .806641 29.778588 1.184482 C 29.923474 1.565164 29.995917 1.988459 29.995917 2.454368 C 29.995917 2.914595 29.924895 3.329368 29.782849 3.698686 C 29.643645 4.070845 29.431996 4.364879 29.147906 4.580789 C 28.866656 4.799539 28.512963 4.908914 28.086825 4.908914 C 27.677735 4.908914 27.333985 4.80522 27.055577 4.597834 C 26.777167 4.393288 26.56694 4.106357 26.424895 3.737039 C 26.282849 3.370561 26.211825 2.943005 26.211825 2.454368 Z "/>
<symbol id="font_0_28">
</symbol>
<symbol id="font_0_26">
</symbol>
<use xlink:href="#font_0_28" transform="matrix(33.333333,0,0,-33.333333,1162.1799,151.38889)"/>
<use xlink:href="#font_0_4" transform="matrix(33.333333,0,0,-33.333333,1180.2466,151.38889)"/>
<use xlink:href="#font_0_26" transform="matrix(33.333333,0,0,-33.333333,1199.5798,151.38889)"/>
<use xlink:href="#font_0_5" transform="matrix(33.333333,0,0,-33.333333,1228.5465,151.38889)"/>
<path transform="matrix(2.7777777,0,0,-2.7777777,1161.1111,250.86804)" d="M .166016 -3.1875 Z M 1.222834 -3.1875 L 1.222834 5.539773 L 4.171698 5.539773 C 4.853516 5.539773 5.413175 5.423296 5.850675 5.190341 C 6.288175 4.960228 6.612039 4.643466 6.822266 4.240057 C 7.032493 3.836648 7.137607 3.377841 7.137607 2.863636 C 7.137607 2.349432 7.032493 1.893466 6.822266 1.495739 C 6.612039 1.098011 6.289596 .785512 5.854936 .558239 C 5.420277 .333807 4.86488 .221591 4.188743 .221591 L 1.802379 .221591 L 1.802379 1.176136 L 4.154652 1.176136 C 4.620561 1.176136 4.995561 1.244318 5.279652 1.380682 C 5.566584 1.517045 5.77397 1.710227 5.901811 1.960227 C 6.032493 2.213068 6.097834 2.514205 6.097834 2.863636 C 6.097834 3.213068 6.032493 3.518466 5.901811 3.77983 C 5.77113 4.041193 5.562323 4.242898 5.275391 4.384943 C 4.988459 4.52983 4.609198 4.602273 4.137607 4.602273 L 2.279652 4.602273 L 2.279652 -3.1875 L 1.222834 -3.1875 Z M 5.330789 .732955 L 7.478516 -3.1875 L 6.251244 -3.1875 L 4.137607 .732955 L 5.330789 .732955 Z M 7.841797 -3.1875 Z M 12.887252 -.511364 L 12.887252 3.357955 L 13.892933 3.357955 L 13.892933 -3.1875 L 12.887252 -3.1875 L 12.887252 -2.079545 L 12.81907 -2.079545 C 12.665661 -2.411932 12.427024 -2.694602 12.103161 -2.927557 C 11.779297 -3.15767 11.370206 -3.272727 10.875888 -3.272727 C 10.466797 -3.272727 10.103161 -3.183238 9.784979 -3.004261 C 9.466797 -2.822443 9.216797 -2.549716 9.034979 -2.186079 C 8.853161 -1.819602 8.762252 -1.357955 8.762252 -.801136 L 8.762252 3.357955 L 9.767933 3.357955 L 9.767933 -.732954 C 9.767933 -1.210227 9.901456 -1.590909 10.168502 -1.875 C 10.438388 -2.159091 10.782138 -2.301136 11.199752 -2.301136 C 11.449752 -2.301136 11.704013 -2.237216 11.962536 -2.109375 C 12.223899 -1.981534 12.442649 -1.785512 12.618786 -1.521307 C 12.797763 -1.257102 12.887252 -.920455 12.887252 -.511364 Z M 14.814453 -3.1875 Z M 16.74059 .75 L 16.74059 -3.1875 L 15.734908 -3.1875 L 15.734908 3.357955 L 16.7065 3.357955 L 16.7065 2.335227 L 16.791726 2.335227 C 16.945136 2.667614 17.17809 2.934659 17.49059 3.136364 C 17.80309 3.340909 18.2065 3.443182 18.700818 3.443182 C 19.144 3.443182 19.531783 3.352273 19.86417 3.170455 C 20.196557 2.991477 20.455079 2.71875 20.639739 2.352273 C 20.824397 1.988636 20.916726 1.528409 20.916726 .971591 L 20.916726 -3.1875 L 19.911046 -3.1875 L 19.911046 .903409 C 19.911046 1.417614 19.777522 1.818182 19.510476 2.105114 C 19.24343 2.394886 18.876954 2.539773 18.411044 2.539773 C 18.090022 2.539773 17.80309 2.47017 17.55025 2.330966 C 17.30025 2.191761 17.102807 1.988636 16.95792 1.721591 C 16.813033 1.454545 16.74059 1.130682 16.74059 .75 Z "/>
<symbol id="font_0_2b">
</symbol>
<use xlink:href="#font_0_2b" transform="matrix(33.333333,0,0,-33.333333,1161.5723,259.7222)"/>
<use xlink:href="#font_0_4" transform="matrix(33.333333,0,0,-33.333333,1182.8722,259.7222)"/>
<use xlink:href="#font_0_6" transform="matrix(33.333333,0,0,-33.333333,1202.2056,259.7222)"/>
</g>
</svg>
